<mxfile host="65bd71144e">
    <diagram id="pmOJlPpGftmv1W2gc5So" name="ページ1">
        <mxGraphModel dx="1386" dy="833" grid="1" gridSize="10" guides="1" tooltips="1" connect="1" arrows="1" fold="1" page="1" pageScale="1" pageWidth="827" pageHeight="1169" math="0" shadow="0">
            <root>
                <mxCell id="0"/>
                <mxCell id="1" parent="0"/>
                <mxCell id="2" value="" style="shape=image;verticalLabelPosition=bottom;labelBackgroundColor=default;verticalAlign=top;aspect=fixed;imageAspect=0;image=data:image/png,iVBORw0KGgoAAAANSUhEUgAAB0sAAALJCAYAAADVksuTAAAAAXNSR0IArs4c6QAAAARnQU1BAACxjwv8YQUAAAAJcEhZcwAADsMAAA7DAcdvqGQAANpdSURBVHhe7N0JYBTl/f/xb7gl3AQCEuUQQRRExNaj4v2rikcvxSr+Wq9Kf15Va3+2VamitOXnWa8WK8W24l1braD074FgVaxIEJRDLhWEhCMhEO4k//k+88zu7Gb2zCbZZd8vXHdndnbOZ2Y385nnmYI6hwAAAAAAAAAAAABADquqqrKvktfCPgMAAAAAAAAAAABAXiEsBQAAAAAAAAAAAJCXCEsBAAAAAAAAAAAA5CXCUgAAAAAAAAAAAAB5ibAUAAAAAAAAAAAAQF4iLAUAAAAAAAAAAACwz3v55ZftqzDCUgAAAAAAAAAAAAD7NC8ojQ5MCUsBAAAAAAAAAAAA7LOiA1J/d0Gdw75uFtunvyDbX33Rdom07FXiPvfuI6169XGeS6SV83D7uc+NYfWuPTKrqlou6dHF9gEAAAAAAAAAAACQK6qqquyrsKCmdz3nnntu84elav33TpCadWtsV2xtjzxG2ow4Wto6Dw1QMxWealDaf/4yE5ROPaiP7QsAAAAAAAAAAAAgVwSFpYlkRViqkg1M/TQ87XrL/zUoNPWCUnV7SU/5VUkP8xoAAAAAAAAAAABA7kgnLM2ae5b2+tvslEPPXR+9b0LWqim/SzloVf6gFAAAAAAAAAAAAEB+yZqwVGlg2n70ebYreVun/E4qJv5vSoEpQSkAAAAAAAAAAACQ37IqLFVdb/2/tAJTrWW6+Yb/lpqlC22f2DQovXTFWtsV1rdta/sKAAAAAAAAAAAAwL4ua+5ZGq3irv+V7TNesF3J6zZ8qLS5fqK0HDzM9onkBaWzqqptn7CpB/WRS3p0sV0AAAAAAAAAAABAdtu4vU4qdtTKtt0iO/aI7Klxo7/WLQtkv9YiHdqIdN2vhRS1LzD992Xp3LM0a8NSlU5g2vHAPlLYu5fIj8fXC0zjBaVq1YhB0o/apQAAAAAAAAAAAMhie2vr5MstdbJua10oHE1Ew9PeHQvkgM4F0qrFvhmcemFpaWmpeU5G1jXD65duk7wtW7cU+cMEqf3gbdsncVAKAAAAAAAAAAAAZLv1W+vkgzW18kVlbdJBqdJh9TP6WR0HXFkdlqqGBKZ1Tz4QCkyTCUqpVQoAAAAAAAAAAIBs9dmmWlm6sSalkDSaflbHoeNCDoSlSgPT96/4P3n4xJ/Imi4ltm+wVm3b2FciLdu1NYHpDW++SVAKAAAAAAAAAACAnLV4Q618VZW5gFPHpePMdzkRlj70SY1c0vs8efiEn8hp1842oWksbTt3sq9cGpiWVu+0XbGd1KnQvkpfeXm5fZUcHf7NN9+UZ599RhYtWmS69TUAAAAAAAAAAADg0Vqg5dsyH2zqOPO9hmnWh6UalP7yi5a2y6WhaazAVMNRv9Xtu8isHn1tV2wnJhGWjr/tVvMIomHnj8ddKQ899KDtE58Gozr8w87wb735prz11ptmHM8+80zKoSsAAAAAAAAAAAD2TXp/0UzWKI2m487ne5hmdVgaFJR6NDB9cXjkvUzbF/ewr8IuHXmufRVfopqlGoJqmKkPrQ0arWfPnnLyKafIYYcNtX3i03BUTbjzLvnD5Mfk2muvM90AAAAAAAAAAACA2ltbJysrGr/mp05Dp5WPsjYsjReUen557v9F3MO0bacO9pVbo/TkUT9IqlapSnTP0k8WLTJh6NChQ+W5gKZyNSzVwPMUZ5hkeLVHdXwAAAAAAAAAAABAtC+31MmemsYPMXUaOq18VFDnsK+zhgalP/uwRmq37DHddbtrpaBNC2nRznl0ai0tO7cy/dU1s38n17z9O/O6z/FfN88alGqN0mSD0ttLesqvSurXSvVoTVJtLvcaW/tTX2uN0OigU5voPenkU0KBqdZG9WqabthQbgLXMRd834StXliqIatH++lDa5r6++t9TPWz+p72909Da7rq+HR+/Lxp+8NbXY5Zb71Zb9hsNP2VV2TKlMdtV9iRI0fKTTf9TNq1a2f7hE3+wx9k5szXpFOnTnL7HROkX79+9p2wyspKue3WW2Xt2jW2T/xxZqPodXP55VfIWWefbbuahzdP/nnRfqq55y0TVq9eLbf/arxUVVXZPmG5Vn5yhX+dn376GTLuxz+27wTbuXOn3HPP3VK2vkzuvOsu6dKli30neUHlOJfFKrfxjpEAAAAAAADY9/jPKffpUxI6fxZ9rtmT6PyRdy7eb/z4X8kRI0bYLpc3/ljn97zz9cp/Ts8717f8s8/MfPTq1ct0fzRvnnk/Wrxl8r+Xq979oqZJwlLVumWBHHdg/IqM2c47H1paWmqek5F1NUufXVYjN766XXYvr5a9G3abR82WveZ595c7ZecnW81jz5c7pMWeWtMcr9Yu1SZ4N7UtlNuHnCD9z7g2pRql8YJS9ckni8zzKbZmqfKa0fVokKnBpYaiHr0XqQaZ3n1JlQ7Xwwah3mvv4Q9IPRrAevcxPcyZtj7r+LymgPUzXvPAHn3Pm7afdnvTzlV6MPzZTTeZg6ifdnvrQHcEDZejlc6fL5ddeklEUKpijTMb6TJEf3lpt34BNCcNll78+z8igtKgL9l9kZafPz/xhO1Cpug+7H2p6b7dFPtndDneV+l6vfGG683xBAAAAAAAAPu26HO1en784YcfMoFkLMcee1zMoNR/Lj4evZD/+eefs11NQ0Pc6PPSurzX/+Q6Mz+5aOP2+rVK75y1U07+01bz0Nee6j11cu0r20PvzV69p16/6Mf3n62WjdXhJn51WjrNfJN1Yekv/rnNhKPx6PsanG79zxYTnE4adKZMHvA1KTrrRrljyIl2qORMPaiPfRWbBo/aBK/ScFID06AwLoiGm959SfX5FGc82lyvBp86Ln3tPbTGqJ+GnnrQ0Rqt3n1NvRqtXhDqzY8/GNVwV/vrtP0HLRO4JnlP1WyhNbw0vNDHU08/Y2rx6cFNA2S/f7/zjuk/atQoc9XL/NL5EQd7PYBPmTLFvPaP8777HzDD62d1HB79Avnud74deuhBNhvMnTvXPOtVOjr/+qz8y6sH/Ut++IPQvEcHqRqQ+JfNH5h4y+19Rsd51113yrXXXGPWoT70tT60vw6r68b/OX14X0j6fMcdt8uECXeYefK+kLzx+vvlAi1/Wg6jy48X5nnr/pe/+Ll5+Ndl9Hr3+vvXqb5Wuk6DhtF1putO+/vHFV0+/e/n2jpWuryvvfaauerL2+dXr1pl3w3zL+crr/zT9nV520LX2f333RuxLrz3tJ9/3Xnj89a7tx1eeOH50PD+7ZQrosutHgOVHhP9y+Itrz6Cyk28Y4dXRuN9HgAAAAAAAE1LzyXquWM9h6nnMr1z7Fpjc/369aHKA/7zRnpO7oLvfz/0+ejzuHoeaOtWtzU4/2f9tUr1c08++dd6LZ6lS1v1u/XW28x0vGXwlkn7PfTww+b8odZ21fn/09QnIobV+Zj5WmRN2FxRsSP+vUrLt9WaQFR9UVkrq5xHQyWa5r4oq8LSO97aIatT3JC17T6VT45dIi+edIq0ad9eWrRMvnrwJT26yEmdCm1XMK8G58m+IFOb0o0OImPx7nOaDq9Gq//zGoJ6NUy96XvdHg1yvXDXG4e3HOnOSzbQA+LFF/+3OQhu2LjBHHCV/4B/5uizZODBB4cO9h49UGrgogdwf60xvTrm+utviOivAUD01Sd6kPUClOZUUuLeo9cLOfQLSA/6+kWh60e/sKKb3dRl8UINfdbg0k+7/aFHMnRdek0eHH300eY5lpbOPnn4sMPNPHkXGei20W2k20qbUMh1xb2KI5rhXbJkiXlomdT9M2i963bRcEqbf9D9Un9g6DbV8qzlW3khuFd+RxwxQpYsXhy3fOqz/31d7/fec09EKJbtvOXV9XL2We5+6V0o4IneT5+aNi2wGQ7tN2fOHPPaXRd3R+wjuu4SlX8dtze8zlf0xRq55tTTTjM/Er0yp7Qs+ptO0eX11z4NKsPesUPLqF6NqOvGk4vlDgAAAAAAYF+j5230tlXeeVg9h6nnGPXcTWVFhR3KpeeWtSboGWecEbfJWv2cfl7PJQVdVK+0JT49/3vR2LG2T+Pzzh9efvnlofn3MgWtZPXDSy4x/XLNtt32RQwajmpIqj5YUyPVuyNrhRa2LpCHzm4vb13WUV757w4ytGdLKWxTII+e4/Z75oJCKSqMjAoTTXNflDVh6axVe+WON2NX+66ncJO0OPV35vFZl40yr+BFKe7cVjoXF0vHou7Sqk3buMHpcZ07JlWrVGtsakDp1dT0Qkntjm7mNtM2ONPypu3Xo0dkt9YW9cJTDUX1tYa7GjR44ZTeq1QD1Ohx5Ro9yHXs2Mkc4PVAr/zBm4af3sHeX/t37dq15jko2NPAMai9dH8NVH1kQ9OcGrxpAKehhDYprF9E/ppxusy67F7NU72CRq+keWX6Kya00GcVXTM1OohKhjcO/xVDSteTV3NNnzXI1WF0vtesccMUbz51W/lDxqryKvly4ZeBD32vuWnwdtGF3w/9CNAwSekXrn85dFn1qqYn/vwX8yMker172+W99941P0K0XHpl1ivPyivnun284NUTVD51WA1Y/VdP6TS1vPhrTmf7evbKo66Xfv37m+Xxau8qXU5vnXrrwavlG83bFt4612PB+eePMZ/RiySUd3yIxbtKzttf/BdrqGxfn9G0rPYo6mHKnP641TKoZTG63KhUjh3+z+tDr+jz/7DOtfUEAAAAAACQ6/S8jl4wHyT6nJjWvNRz7984/njbJ1yjU89zes3yBp1L81fI0WcNUvUc3MCDBpp+jU3P1ek5Oz0/pecT/XS+b7jxpxHnb4Nk67mrHXvsiwCnDGhtwlENSdUXW2qluLCFCUQbItY09+Xze1kTlk54a4d9lVjBgPek5bfGS0HxMqmr3msetbs3yIZ17slcDUo1MPWC08IuXaRdxw7mWR8HFPeUfw850Awbj56c9wLSH4+7MvTQ+4h6/ZOpXdrYvABUa5HqQ0NS7efVgFU6nxqq7ouigzcvUPQ3TevxH8i9Jje9h9fEqRfOaK01773oK2Oaix7YH/jdg2b+PPrF4827F0bql5POt3ePVg3dtmzZYp79XxgaYmqoERQWxxP0pROPBoYaZnuBl85ndPinOvXs5Oy3nW1XmPbT97KRlr3oGnT+GrNe+Kk1+Q4ZMsT00wBJr9DywqouXbua9aHrxbsySwM63XaLFy82X/T6Q0U/F698ahnQbewP073agF7ZUNm8nnU9ajnxypgusx7TdJm8pni95dRhvB9vXhmL5r9qTmsA+8udV1M7Ee8iC2/dR8vFcuvnHUP9Vw1qWdUym8yxQ9etHn/95c47Jvnl+noCAAAAAADYV3kX0yeqVaq884xBF9XruT1tFVHPK2nrZk3N35JaqrL13FX0/Ur9hvRoacJRDUn1vqOflNXIYcUtpWeHhkV/saa5L5/fy6qapckoOOav0uKYJ22XSG1V+GTszq/+ZkJTPw1OtXne/Tp2Ms/d2raRL/r3sO/G99ZbbtO12j633jfU/9B+GkR6zdw2Bj2hHxTIai1R5YWk+qxhgt5bVU96e/c+1f76eQ13lQ6T6/RApwc8r9lTPRmvoajywiOt7acn/rUWoDZZqvr0cWsR+wOjWPTLQGtE+WuqaeDkr8HZnLz5838RaRjnb3Y4mq4zXSep8kKphvKHKR999JEp0/5A0S/6gJtNB1r9kvff+9Fr894f5EXT7aVBZzz+MFlr8GkopQGdlr/3nR8pun11/9VxpVs+o2tDZut69prg9QdvXvOwum6iA7hskc3lNpquQy0PWn40qPeOjw2hNZt1n/Bq6+rxVy8u0h/afrm0ngAAAAAAAHJdvHOT/nNC3sX0yZwn0ovn9TyQ1+KgVxFEzzfNeust9xywbaHPq8jhr/DTGPT8s78lNT89P/XLX/w8qRA1185daXO6PQoLTEg6a3WNlFXXyoGdGzf221fP72VFWPrE/OQaQG4xbLq0GPC+7XLVVUfWB65e9ft6gamnQ83epINSpeGjNl17wQXfl1OcZ/9D+3kBZWPx7pP68EMPhprXffbZZ0ygEt2krleLVB9eKOqFqF7Y6h8+V2lTAHrA82qRahiqB95YvCYivRphelD27u3ondyP1Xyn1uLU5gW85jt1PaZ7VUom6BdJ9M20vdpfHq+mnHdVj/fQ5Tj44INNyKxfVl6TrDoeHV/0F5UXKnvBVSZ4NX61POs4o5vg9fMOuPvCgVaXUde7P7zXcvSaU5a9sCoiTHaG0+G1zGqAqvfb1DIf3YR0UPnctWuX+ax2+5tD1Yd3X1u/bFvPWga95l6DeBcFeOvUX5YTHQuaQq6UW29deRcseD9otUx6xzhvGF3PnTt3rre+Yx07vB/L2jyyllv9oR0tV9YTAAAAAABArvPOo3nn1fQ8jlY+8s5LKq+fnlP0WhWLRYeNPkftBa0aVrZu3dr0S1bQeT7lnZvyWttLhnf+VGu2eue4dH6ffPKvsmTJEnn44YcizmPFkm3nrlq3LLCv6itsXSdH9WllQtLpS3eb8PTrJQ1rglfFm6baF8/vZUVYOntVnEaXPYWbpGDYDNvhqttTK6IPn71bP5VdG2fVC0xb1NakFJRqOKniNV2rNTiDan5mioabE+68y7zWgElr6Tz7zDMmKL322utMf48XhOqzPxTVEFXpZ3KRv6lRr4aZHrS9pje9MDT6/o1eAOoFnHpA1Rs7q+hxejVRvfAuunlerylbr2Zfc9F503nUedV51nnTq3P8oYcXSHrN8HoPrXWonz/7LPe+q9G1cLW/vu9dOaTrWd/3rvxJl07n2muuMdvAqz2pdB6jm+CNpgfZbDvQ6rr237PUW//xfkj417u3Xbwydeyxx4Xa+ve2ndLtrGVNf2Ao//jjlc/i4uJQ6OrVyvQesZqSzqb17DVZHBT2ao1FL3wLKssNLauZkgvl1ltX3n6vZVDLor/c+IfRshi9vv3HDv2Rqfu5N3596HDx9vNsXE8AAAAAAAD7Gj334z+nHH0+Wem5HW1dUENLHd4vOhyNHp//PNDpZ5wRqqDkPbyWEfXcXlBlDm98yjvvpA/v3FQq5+S9ikX+c1ze8ur8XXzxf9ebfizZdO5qvwT5c/+ubrC5urJWOrQukB7t4wedyUg0TbWvnd/LirA0mSZ4C/rUrzFUVx1cI1Wb4/XXMNWgdGO/IvM6WboT6s58SpyQUd/7w+THzLAaUOprrXHq0e7oUNOjw+n7ft40/WGn9tPh9KHBqb4fNE5v+kHj1H6x5iPX6MHu7nvuMQdIDeA0DA06Ie8Fc3pg9JpH1WYBvFp4fl7TqnogV/qs4aufDvPDSy6xXc0n1rzddNPPzIFeQ4/b75gQCt2Uf951HXhfUB4dn9dkgj57zWiqi8aONZ9PlYbZ0evZ/8Xn/zLOdbqcd951V9wv7Vjr3X+vWP281ySGF1p7V0P5f6gkKp9B7/u3cTbzrkLT41b0+vTWhXcvYl0e/3KOGjUqrbKaj/T4oBeU+MuElkX/vh89TKwyrP11W+k+EL3PX3/9DaGLAQAAAAAAANA8os8X6jmca665NnS+Uc+zb92a/C3cosen55H0nHS654F0fNHnnZROw3/+NBFdHg1k/fOmdHkf+N2DOXueqkMb+yKGQ+19S5Xer7TIvm6IRNPcFxXUOezrZtPitsg2pINceurnMq373VLTKjy7tRu3S+2GHbYrWIs2PeSEzr1l6sibpF/7YtsXQHPQWpF6hZB+YemXIAAAAAAAAAAACLZxe525J6nfnbN2ypsr98gdp7STE/q1Ttjtqd5TJz+fuUNWVdbK3afvJ0N6BDfZa0LXDNRQbS5aIUeVlpaa52Q0e1iqVYMH3LvFdgW7ZEQb+dN3C+WdqsVy2ud3hQLTmnXbpK5yl3mdyEk9DicwBZqR1ga85567TTOrDbnSCAAAAAAAAACAfPHuFzWyp6Zpojy9X+lxBzb8vqfNKZ2wtNmb4V1dEXnP0WheUKqO7zREXu97q7Tcm3qiPWvDx3LpvHtk9fYy2wdAU9H7ZXrtw59//hiCUgAAAAAAAAAAktC7Y9PV8mzKaWWTZq9Z+sT83XLZi9W2K5I/KPXzapjuqaxO2AxvNGqYAgAAAAAAAAAAIBfsra2TD9bUNnrtUq1V+vWSFtKqRW4HpjlZs/Tzysi2lj2xglLl1TDdr0Pw+/FQwxQAAAAAAAAAAAC5QMPLAV0bP87TaeR6UJquZg9Lg5zUv1XMoNSjgelrB90qvbv1tH2Sp4HpybN/RmAKAAAAAAAAAACArNarY4Hs36nxIj0dt04jXzV/zdKoe5ZqUPrmZR1tV3wamH510l9N07qp0qCUwBQAAAAAAAAAAADZ7uDuLaRnh8zHejpOHXc+y6qlTyUo9Xtr1N3mkep9SAlMAQAAAAAAAAAAkAuG9GiR0RqmOi4dZ77LmjWQblDq0dqlq874i9w+5L9TCk0JTAEAAAAAAAAAAJALtBbo4KKW0rpl+s3m6md1HPleo9RTUOewr5vFZS9Wy+rK2gYFpbHovUnvWPJXWV3tBqHxAlENWN86IfXaqQAAAAAAAAAAAEBT2ltbJ19uqZN1W+tkT01yUZ+GpL07FsgBnQukVYt98x6lVVVV5rm0tNQ8J6PZw9JZq/aaWqVNRQNUtXr7evOsPt9ebp5PLDo8rfufAgAAAAAAAAAAAM1h4/Y6qdhRK9t2i+zYI6HwVMPR/VqLdGgj0nW/FlLUft8MSP1yMiwFAAAAAAAAAAAAgIZKJyylMWIAAAAAAAAAAAAAeYmwFAAAAAAAAAAAAEBeIiwFAAAAAAAAAAAAkJcISwEAAAAAAAAAAADkJcJSAAAAAAAAAAAAAHmJsBQAAAAAAAAAAABAXiIsBQAAAAAAAAAAAJCXCEsBAAAAAAAAAAAA5CXCUgAAAAAAAAAAAAB5ibAUAAAAAAAAAAAAQF4iLAUAAAAAAAAAAACQlwhLAQAAAAAAAAAAAOQlwlIAAAAAAAAAAAAAeYmwFAAAAAAAAAAAAEBeKti8eXOdQ2rrakWfnf+ZZ+/hDOK+dv75ue8BAAAAAAAAAAAAQMMVFBTYV64C/Wf61Zln7+H8zzy3KGjhPrfQZ/cTqrS01Dwno6CysrLOC0Y1MFVet/O/UCjqPXuiuyNFLggAAAAAAAAAAAAAaPAZiwlCfbxuf0Dq9fOCUvfhdLdoIbW17rhTCkurqrbUafCp2af7bB92RvW1/1npLPi7AQAAAAAAAAAAAKAhNPj0J5BeMBp6tjVNww/7nu2urXErhqYUlm7dtrXOBJ8akJqH+4b72u3wng1nehHdAAAAAAAAAAAAAJABJvz0R5PabZ/Dr21/28/8c5737t1r3k8pLK2urq4zwaj+c551EqbbBqLuszth5fUHAAAAAAAAAAAAgEzzQlGXe79SZYJR52HSS31tQ1LvvT179pjXKYWl27dvN+lnREBqJuELRhMEpASoAAAAAAAAAAAAAFLlhZ0x+cJQ82wreZqw1PeePnbt2mW6UwpLd+7cWRcRlPqCz4jXNkAFAAAAAAAAAAAAgMbmBaPKC0ZVdEjqvd65c6d5nVJYumvXLpOCRoel/qDUE9QPAAAAAAAAAAAAADLJH456/MFo/ec62bEjjbB0924NSwsia5ESlAIAAAAAAAAAAABoRvECU+WFpPqsSeaO7TtM/9TC0j27TQpqRmUC0fAEkg1Idbide2ulYmeNVO+tcbrtGwAAAAAAAAAAAABgab5Z2KqldG3XUtq1ahEYiAaJHC4ckCqvud7t27eb55TC0j179oSiTf99SSMmlyD91KB0zdY9hKQAAAAAAAAAAAAAEtLss6RjaxOYxuMPSf1RZND9TKurq81zSmHp3r17w2FporTTmU7QMOu27ZFtu2tsFwAAAAAAAAAAAADE16FNS+ndobXtCjPhZ6LY0heiKu3etm2beZ1SWFpTU2MmlSgojff+8oqd1CoFAAAAAAAAAAAAkDTNOwd2bWe76osORKNFv9+gsDSWhLVNHcs277SvAAAAAAAAAAAAACA5g7rFDks9iUJTpcNs3brVvE4pLK2trTVpaDKhaCyEpQAAAAAAAAAAAABSlUxYGkt0iJpOWBq6Y6qOLOgBAAAAAAAAAAAAAM0lKMPURyaEapY2BDVLAQAAAAAAAAAAAKSqITVLozWoZikAAAAAAAAAAAAA5JqG1DRtkemqqgAAAAAAAAAAAADQmDKVcRbUOezrtNEMLwAAAAAAAAAAAIBUZbIZ3qqqKvNMM7wAAAAAAAAAAAAAkABhKQAAAAAAAAAAAIC8RFgKAAAAAAAAAAAAIC8RlgIAAAAAAAAAAADIS4SlAAAAAAAAAAAAAPISYSkAAAAAAAAAAACAvERYCgAAAAAAAAAAACAvEZYCAAAAAAAAAAAAyEuEpQAAAAAAAAAAAADyEmEpAAAAAAAAAAAAgLxUUOewr9O2bPNO+ypNS/8p339ure3w6T5UJl91vHS2nX5b5kyTcbO2ytljfiwXD7Y9oyz72x9k/Ke2w+go464aKyd3t53RfPMRb7xZZ9M7MunRz+Xr8ZYtSWa9Luwbc72nb7E8eefbIrm0XuMw66n8SHnme0Nsn1RslLcefUEmb3JexijjjbcdGolv3xlx0nly86gi8zoTzH4sJ6a5rptTKmV+39o/AAAAAAAAAAC5b8/evbKleqcUde5g+7hq6+qkbPMW0791q1a2b/oGdWtnXzVcVVWVeS4tLTXPyciemqUaGt32Y3nG95hQvEjGPfqObLGDhC2Wf84SOfvQjvLKG8HvP3mnDVj84xzTSSY/+gd5cqkdLFAfmeAMS2CBxlMkJ1/1Y5l8UkfbXV/nUWPlmVwJSh3LFq01IanuZ5kMSvPHELmY4w4AAAAAAAAAIEtU79gl85Z+LgtXfilflGntL5dWwfx8/Ub59POv5KNln0v1zt32ndyVPTVL3+gaUIvOrYH3wbCommre8BeI/CGgRmW8mmhxawSa2nEiE247RwbZXl6Nr1dslxzqjdf2D3U7zOerQrVX69Vs9Q2r7/2954ny9YVvuzUMba3XPrPCnwnX0NNpfSR9xvSVD55bJPP1TX+NxHo1S2PNc2JujcZOcraslVds2Y+sZeurFWn5axKaz8/aal5H1uR150kO7SOvfOrVItZg2r+uE/DVXoyuJRxrfYbLRdR8R9To1HlbLn1OqpLJOu/2vbIY2y9iGX3jiVx2/7IFj1/Mug6uPepuB++95Len+Vx5XxlXtii0rNE1PYPns/6+FjkPyl2Or0dss+jyoOMbKB8ELG/niO0XVa5MGbZl2+GfZ3d/7iNnO+XGWwdxa35HjSuorIS3a4IyGDXPiYaPWLdOWdd5DtcWjbfv2P3DDhu5jcLz764L//avv90AAAAAAAAAAGioL8s2yrK1G5xXddKiRQsZ0re3FHfpLKud/iu/KjfDtCgokEO1f7cupjtd1CyNq0iOHNZR5pfrxggztdiGHSKdux8iX+++VT74dKN9Ry12ujvKuJOCwyRTYy/J4NAfYLi1U8+TcWVvy6Q5Or0hcvFVQ2XEpx/JWyb8cIZ9bq2cPcYXapQNDdeWHdNH5NO3I2q1zp/1kcgF7vsTDt1qar3+vadbO0+Hnz/rPVlmhxVx3n+uQr5jxxev1m3seU7SprWydpidD2cZ1z7n1ca1YU/xiXbcbu3I+bNmuutg6T9l3KxOojVzzfumJu8/fcsg8kpZV7tOnPnqvlbG/22xfSeBUBDtH/c0u+5d82e9LWtPDXo/HCh5823WX8S018pkDdH1/atsUBpj+2kZMrVCNbS0QaIbboWXffJJVTL+Tv+yR44/OhyNTefdWa6TvHlPYnt+usi3HrQc2e3jiD2f0fvaRvlo4VanLFRIme0jS5fLK4cOjAoK3VqyEw51g79nQkFi1PKa7acXItj5MuXK2z5OmX10kfQJldkTpc+sFyJrgH9aJX3sttd1/8pzkeUqxAal4XFpOXP2nWfdfUWX379dzfIH7keO6DLnzJdeRBCrzEav2wl6wYF9L+G+4xdnPxo0VMvh8vCyb1oiH2zqI98hKAUAAAAAAAAAZEiB8xi0f5EM6NXNdNXW1sriz9fJ/OWfh4JSKSiQIQcUS/9iHSa3ZXlYKtK5ZyeRsk3hMGPTO/L3TzvK1w/VcKBITj41KlTctEnWSifpE6pRmL4tcz4yNUfDNdic6V0wVMSbXvfj5Tsacj77jrz1N7eWqTfsoO/9ODIUGzxQzrYvQw49MlTbzYQg4gs9zPBVstYXpJw9JlyjbdBJQ2XEps/lo6igJeE8J6P7UPmxNx9mGUVeWaQBkRuM+cPmzof2lRH2dT2Dz5FweOY6+1RvnbjhXMS2jWmjvPWGNvN6erimqDNuEzDP8gVX/uUefKwJyUyQvvQ9mSy+ZXIM+t6JcnYo6HadPTS8XEltvxBtFlrvnxte1s6jTjdh8N99oaZ//Olzt0HcWoTO9jsntB50vrfKWjMb8efTbMtQELfBKXt95OxD18oHNrTUixRSWYbwsO72809Xy9WPT5LI7RcS0CStb19xy1zkvhHijPfmiM/achZD3OaOTfn1104e4hx37Mt63HB5xEnHhvdRLWP2dcr7jp9/PzLbM7xNtnz6ucyvF2ADAAAAAAAAAJA+bZJ2d22BHNa3t/TtobVG3cC0Ymu1eV+7h5T0lIN6F8mOPbW2X+7K+rA0mhsOhIOT6PAgkNYQu/MPvkeMWmlRysq3mtqEEZ+NaN7TBiKbFsnkT/vIhIAaq1rbzP2srxnVWLp3lWL7sr6O0sefj3XvLn1CIVhYMvOcUHH3iPCouGf9UFNrztYbtwko18p4O93494ZNhQZ3In16RgaEZr58RvTsYV+pIunjrEytKbmlvErE2UbjvPVhHklsD0dS288E9FHbx06/4YrsBQEvuPMRqxZkMhLNpylTNoS0tUjPcdbx2nItZFpju4983R9gJs3dfq8851//f5BwM7ND5BxTW9S+l2xt47gWi963OHI6Go4eafZXtyxE1kyOSWur2nFFNMscIaiM9gi8aCNw3/GLux+5ga27Tdz9PTMhPAAAAAAAAAAAYTV1dbJrb50M77+/9OneyfZ19S/uKgN795Dte2pNsJrrsj4sNUFXKLxza8ZFhoFuiPXKGzZE8gc+HlMz68e2SUutwZkCbWrV+2zoEVlb0hU5TS9kCzen6a9l1siSnufUeUFPqClTbYrYvheqPef012ZZ3fAryUCqsel9MyPWhz78tQYjNev2i+aVX13XXtCXkUAxmgZxbm1c3e80fNbaj7JwiWzRoLWBNRj1PqOR69952AsMTA1P7bbNHeu6T6np6BAvJA03XWyaTA5xa62Gmud9VIeN06SvjsvXrK+W63TF33f84u9HWgt9vm6TBgXYAAAAAAAAAADEp4Hp6g1bZN1m9z6gnrVO9/ot1ftEUKqyPCy1TVt6NQa1tpv0Cd/Lz3towBJqktYNfIKb90xNUI3KaMts87umSVh7X0Rvvt1wKDMhpd6zNKIWaWAtweTmOaGoz5vaqiawtveD1SAnwX03TTO2NpCKvKdsOtwael5tOo+ZL5/Ie9tulLVlbm1T05Sz/96bCaW4/QJr+brTzyjbxKwbKPruW5msJObTBHHlS5zlF7epa/2Ms+4++vRz6ZN2Dcbg7RfIBsPmfp4mEEyRHiNsMB63qeJQIKkheHDNdLcWu3vhQUSTwIGCltGtbepKft/xC9yPtDa9Hu/mBN1DFgAAAAAAAACAzNhQuVU+/WKd1Na5sWiLFm6suHvPXlmw8kuprN5hunNdVoely/72QsS9JvWeiRIUDvjvT+lw70f5dv3ad1pT7DlnHEnymuz8g6+Gm6lx6DWFuvSfMt42v+s1x+sfNhycbJS3Hk2u2dd4QrVnHctmLYpsjthKOM/JcD7/Ty88MsvYUcad5AVl/rBtsTzpb0rUNHfsq6W3aYl8sMm7v2xDeE3RzgzXUq03Xw7/PUj1PqWb7D1gvWZN/eUhel4DJL/9vGZkw+PbMmdmePoNotOOrGUZcz9IKIn5LOoqIz5d5PTz7vurIeBamTyrUwNqMAZsv4jlcmuDhpubtRdJDDsk6VAxgj8Yd7azvxneevuCvQAj5rL5LhzQz8ZuhtdbxvC9gc2FFPa1K86+45dwP/IuCEntHrIAAAAAAAAAACSrctt2WfLFOtlbU2O6D+zRVc48crAUdSo03RqYfrJ6rVRV7zTduSx7wlKveVHfY7ycGK6Ftekd+funEiMcKJIjh3X0BRVuU5sTpP69O93mNJOt7emM56qhIt79Ip3HuIV9ZbLOkw1eR5x0rB2XM+wYLxAqkpMv8H/uBVl7qtYOE3llUfo1Xs8urgitI9OUZ8A9UuPOsx0ioUOHSp833M9+31nGs8d4zdW6yxi+9+RH0ucqrZlng+rB58iEQ8P3WnTXd+ymblOiNQ7HdLLNpjqP56pk3FVR4z60k6yNeN/bzlqL0Abo3rw9JzIhZjlIvP20edoRZnxuqKXNyE4+qSq07G7zvZmoVRw9L/G2fWIJ57P7IfJ1XaehMNbdt+LfTzcJzvabfJKEt5+zTj8Ydp6t/Rldrl6QycUnJqgZGkN0GXyjq0z21TzvPOp0GSe+Y01EOYkUPey48iPdJn1j1eo1yxhet3/vOdTXdHOCfccvif1IawBLvJAXAAAAAAAAAIAG2L5jZygo7dO9sxzef3+pkRZy9MEHSveONjDdvUeqd+R+7dKCOod9nbZlm3M/NTa0RlfcEK25aM27t0XGJNMcaH7S+0GacD3NELE5aE3FlINsQOmxatHAnCrvAAAAAAAAAIDcUOA82rduIeWVW+WLDRUyYkCJ7HX67q2tk9YtCqSupkbmr1wrB+9fJN07FUr1nlr3g2ka1K2dfdVwVVXu/VVLS0vNczKy/J6lAIBo2hQzTfACAAAAAAAAABqD1rLUALSoc0f5+qC+oaBU7XGeW7RqKccN6SddOzY8KM0G1Cz1MzVL3Xuanp1VtTgzU7PU1L6Mec9FkREnec2iNjHfeg/UfWjC2pe5VbNU79f5gkzW+3cmsWxAiDb/rfc6PTS3alEDAAAAAAAAABBLc9csJSwFAAAAAAAAAAAA0CxohhcAAAAAAAAAAAAAmgFhKQAAAAAAAAAAAIC8RFgKAAAAAAAAAAAAIC8RlgIAAAAAAAAAAADIS4SlAAAAAAAAAAAAAPISYSkAAAAAAAAAAACAvERYCgAAAAAAAAAAACAvEZYCAAAAAAAAAAAAyEuEpQAAAAAAAAAAAADyEmEpAAAAAAAAAAAAgLxEWAoAAAAAAAAAAAAgLxGWAgAAAAAAAAAAAMhLhKUAAAAAAAAAAAAA8lJGwtKCAvsCAAAAAAAAAAAAAJKQDRljRsLSwtYt7SsAAAAAAAAAAAAASCwbMsaMhKXd2rWkdikAAAAAAAAAAACApGi2qBljc8tIWNquVQs5oGMb6dCG0BQAAAAAAAAAAABAMM0SNVPUbFEzxuZWUOewrwEAAAAAAAAAAAAgJ1VVVZnn0tJS85yM5o9rAQAAAAAAAAAAAKAZEJYCAAAAAAAAAAAAyEuEpQAAAAAAAAAAAADyEmEpAAAAAAAAAAAAgLxEWAoAAAAAAAAAAAAgLxGWAgAAAAAAAAAAAMhLhKUAAAAAAAAAAAAA8hJhKQAAAAAAAAAAAIC8RFgKAAAAAAAAAAAAIC8RlgIAAAAAAAAAAADIS4SlAAAAAAAAAAAAAPISYSkAAAAAAAAAAACAvERYCgAAAAAAAAAAACAvEZYCAAAAAAAAAAAAyEuEpQAAAAAAAAAAAADyEmEpAAAAAAAAAAAAgLxEWAoAAAAAAAAAAAAgLxGWAgAAAAAAAAAAAMhLhKUAAAAAAAAAAAAA8hJhKQAAAAAAAAAAAIC8RFgKAAAAAAAAAAAAIC8RlgIAAAAAAAAAAADIS4SlAAAAAAAAAAAAAPISYSkAAAAAAAAAAACAvERYCgAAAAAAAAAAACAvFdQ57GsAAAAAAAAAAACgyW3dulW2bdsme/futX2wL2vVqpV06NBBOnbsaPtkRlVVlXkuLS01z8mgZikAAAAAAAAAAACajQallZWVBKV5RLe1bnPd9s2NsBQAAAAAAAAAAADNRmuUIj9lw7YnLAUAAAAAAAAAAECzoUZp/sqGbU9YCgAAAAAAAAAAACAvEZYCAAAAAAAAAABg37R5tjxw3bXyk/tmyybbq2E2yZz7nPFd97x8ZvvEt0xe0OknPXwSlj7vjE/HqY/7ZM5m2z+QN3338cDb8daCDpvM+DIxTPYgLAUAAAAAAAAAAABygQalj8y2HWqVvHB7rCBWQ8uHZI7tUqv+dru8sNR2+Hz23LXyk/tekTVygMjC++Qnzy2z74RlaphsQ1gKAAAAAAAAAACArLbp7ft8tSmdR1QIF/l+jFqNvhqZkTUsI2tfxht3vZqZATVXveGDQknD+0zQOL15jBEyfrbADUpHXf2Q/O7Bh+Sa47VrtiwImtbSBW5Qevy1ZtjfXX2C6T1nQf1xHzzGef+sA2SVM6558kP53ZhB9p2wTA2TbQhLAQAAAAAAAAAAkL2WPi8T/rbKdljvPBQKGTWcjHxfa1tGBaarnXH4amSu+tuf7fv1a1/6xx097VV/e0heWG070qFB6e3PO3MYFqu2Z32bZP0afT5Bhg82PeTg4W4AumZ9VIjr2LT+S/M8argNLAcPl1H6vGZ9vSaJTcD7iMg1D94uI+fdXj8UdmRqmGxDWAoAAAAAAAAAAICs1/97t7s1JO3j+hO7O32XyVsmzOwv593u9h//vf5O9yqZt9Af1IXfd2tjrpKyDc6TrX0ZHvftcl4/DTDflM/0/qTT3YA19P7t5ztjSt+mhR+aoNSrGfq7B681AaZOx8zt4PPd/oE1MjdJWYygdlVZ/VByc5k/kvVZXSbRFW+7n3ijM93z5WDpLqNu9NZtpEwNk20ISwEAAAAAAAAAAJC9bI1IrYHpNV0bqom5eb2Yypb9jpJDu5k+NrCLCup873crDsedXu3L8LhvtzVHv5T1m71w8gQ5yxtXt8NkZD/3ZTq8AHPOI14zvLZWa0CAiaZBWAoAAAAAAAAAAIAsNkjOi6rVacLGGPf1zAxb8zQNMWt0xqXhrH0ZU3cpjhHU9i+uX4PTHwpH6FcsNjeGg7AUAAAAAAAAAAAA2a/bCXK9r+laeWeBfNatl5To69XPy1tebdOlz7u1NpMIU7v3OsA8Rzfxq4/zBnvh5GyZHrqH6ZvB9ywN1QxdJgveMS8CeQFmuBle73GjjEqYYHaXXmZhZ8sCu6yfLXCbCS7pFdAkrl22OQvserBNDjsDO2OCp6DOYV8DAAAAAAAAAAAATerLL92mcGPZ9PZ9MsHclzTK8deae3sGv6/3KL1RRslseeD252VVv/Nl/I0nmJDQG14Dy/MGL5MXvKZw/bzhNXh9xA0kI50g15h7c8b4vCNy/Hb4zXZ+7DAhdllM0KvT87qjBc6PNy/RgufNnS/bkQUOOMANdTOhqqrKPJeWlprnZOyjNUs3y2elH8qHH8Z5fPSRLFi0VFaXV0mN/VRClStkgff5RV/ITts7OXtkS9lqWfrJQpn/kW8+nMdHpQtlyeoy2bLbDoomsXDyt+W73/m2/GJ6me3TtJp7+jGVz5BfOPP13e88JgttL2Re2X+myiP/L8u2PQAAAAAAAABkIb0H6fjvRTUpq2GmDROD3h91dTI1NZU28WtrqoacINfYYFUGO9Pxj/v48+W8iKZwnc9ffYJ97XDm65roefXT2rG+5oQN37Ik5MzP7/zTM6FwUFCq6i+b1qDNpqA0GzRazdId27fLhg3lUllRKdu3V0tNTdKRpLRs2VLaty+ULl27SI8ePWW/9u3tO8nSsHSlbNlrOxNosV+R9D+kn3RtaXvEUL5svnxR5S1Ha+k6cLgc1MV2xlGzda18tmKdbPPNT4sWNqeuq5VabwsUtJaOfQ6Swb062B5oTBpW/uo157hyxWT5zVnFtm/Tae7px6Rh6bjHZKmMljv+fqUMs72ROZWv3SyXTV6afdseAAAAAAAAAJpBopql2LftkzVLV61cIR/N+1C+/OIL2bq1KqWgVOnw+jn9vI5Hx5eull0GyFFHHRX1GC6HHnSAFBW66Wjtjo2yaumXss10xVImFdt0OdpK+/a62vZIVXm5eSeemo0r5dPPbFDaoq107NVPho44So488kj3MfIoGX5wH+ncxhln3R7ZumaFfLYxtfUFILfsYhcHAAAAAAAAACArZDQs3b1rl3xcWipfrV1rurt06SoH9u0rgwYfIkMOPcw8a7f2T4WOT8er48+M1tK+a7H0G3K4DOrZ3qyE2u0b5IsvYzesW7O2QqprnRet2kmvHoWiMWvNts2yNm7osVlWr90su/RzrTvLgUOHyeCSImkXVYO1defecvDhg6Tnfm4Iu2VdouAWAAAAAAAAAAAAQENltBleDTS1Rmi7dvtJ7969pd1++9l36tu5Y4esW7dOdu7cYfsk1rFjJzn8iCNsVzzhZni1ZumIgfEapd4mqxcukY2aw7bpJoMOHyCd3Dd8dsoXixZJ+U5vfHtl6fwvZGuNSLseQ2Vo33Z2uEg7P18kizZoANtWug0cJgMSNdmr90RdXiF7UmjiNxll/5kmf3zudVloxi3S2lmGYd8cKz8aM1KK/cHtuhnyi588Jkv3tJHB4x6S35wR2Txo9UcPy4/vfF2qWw+WH/1ukpzZ277hKFswQ16d/rrMXrhSKm3m7E7n23LJWSdIiX+les28DrpSfv/rE2X7a5Pl/ufelzVVu50V2tX5zDVy1Q/ceate/ro88Zdpznh13ttIl2EnyKXjrpFRfey4VMT4jpU1zz0sf35toRlf604lMuyMS+svqyNuM7hVK+X1J5+QF+YukXKdr9aF0vOQY+W8H1wqpw0stAM1TMT0j1gqj0yeGrGcF8WZVkrrW9VUy6pZU+WJ596TJeXVvnIQZ/toM7wvjJUO+rknZ8vCSm89nCY/uuZSGdnTDp8J5R/Lqy+8IC8ltb4/lj9+Z7y8apoJdubvDd/8afkZNVYuufg06V9/R3aVz5OnHp8mr3vrzvlM/2GnyUVXjK23TGXTb5b/edxtLvf6wmkycfJsWbNTt89pcvVPrpSRpsH6VLaHN+9RzpggL4473HY40l0fT54oCydOkJcWV4to2R9zo/zvWQOcEgUAAAAAAAAA2YtmePNbczfD2/J2h33dINpU7qaNG01QqrVH27SJf3q+VevW0qlTJ6murpa9e5O7ueju3bukpmavdO2a6I68O2Tz+gpTo7NFu67Su1vs0FakjXTcWyXl23ZLXU2tFHQtli6t7VueHV/Jl+uc+ZTW0qWkv3RrVyitt2+QzTtrnXnfI4XF3aR+XLpT1nz5lWyvceahsKcMPqBT4mq87VrJ9k0VsrtlW+nQoYd09t2qdfPy+fLJyrXyVXm1tOvVXeItUUhNmcy5+1q59el5sm7zTmnZpViKunaQ2i1r5IuFs2X6G5/L/l87Xvp2tMN3PFiGdZwv/5pXLuUfr5P9TztR+noTqp4nfxz/hCzd1UYG/+hO+fEI776q1bJw8ji56fF/y9KvKqSmgzuNwlZ7ZGvlRln3yXvy6pwqOfTUkVLsFYnqz+SNV+bJpk5dpXbOg/LIv1bKjv2KpKiTs423VMm6pbPlX8v3l2O7zJT/vWWaLK7aT4p6dBbZVSVb162U9//ffOl04n/JwV5m5I2ve7G0fPdBefzNNbKjrTO+bm1k56ZyWfuJLmvUPDjK5z0js5aLFB15jpw2KHyf2OrFU+UXNz4o/++zMqmubSc9ne1bWFAt5V98Jv/5f6/IB7sOl+OPKGpwAOVNv+WOL+SVp/8hi9bVSqfeRdKpxU7Z9KU7rdKOJ0TMW1rr2ykHr942Tn4z4zMpry5wp9HRKwc6/FfSd9SxUhLa1nZ9OiV209In5K///Ewq2uj6dOZje4VUrlsqc2a+JTXDz5FhNixsiLJZk+S6W/8q76501ndBJ+npbOvCOmd923Xw1rbBcvKRxb71XSYfPfuWLJfest+Op+Sxvy6UdeJ+Tqo3yprPPpB/TXfKyPFOGfHKtuVOa5p85Ky7na26utOqrZK1qxbKnFdmyue9jpVv9POVhc9el+kfbXK20Wfyr1c+kgpd351qnIPtwXL6+SOkqEWq26NSls5eKBtb7JHqXTXSupMzvLNeCw8aJWcfXmSmmf76aCHrFr8oc5a3lCKnzLas3iRdjz1fTu6X1NECAAAAAAAAAJrN9u3bpbZWm+lEvmnVqpV07Bh1Mr8BdtlWatevX2+ek5GRmqU7nEKs9xZV/fsPiFujNJrWMF21aqXtSo7e53O/9r4ksZ5UapY6dqyWhZ9slF3SQjrsf6Qcsr/tb21ZsUA+q9gTWfO0aqUsXLbZ+UxL6dh3hAzuYQYNq/lCFs0vF1NxrecIGXpgVLXGFGlYurKyxik1nWXAEQdLorhYLf3zpfKLf1SIdD9Bbvj1jTLKqzVXUybzpk6S/5u+UvYcOFYevO98KQnNXpm8+str5Y+Ld0vrUTfLn248VgqlWt6/71L5vzn+fq7d798n/z1ptuzp5Ezjbt801NoZctcvH5OPqkQGj5sqvznDNr8cqrnoaD1YLvr1eDnPqy23fJpc97PnZY20kdatRQac91u59XsDxNxetmaNvPTLa+TPy0R6Xviw/GFMifsZ//ikq4y68bdywyhbU9TZTi/89ufylC7PkTfK5NtOEK/CbmDN0orZcte4++QjrV17oW/ajurlM+SR3z4m729qI6N+NlVuOC66hl9qvOmr1sMvld/e+K1QbciyOffJL+6bLZXO8pw7aapcMsjtn8769j4jQy6Ve+/8Vnhb6/q87Ub5s7NuCs+dJH+9dLDbP2L7DJBzb7lNLhlut53vM+Ksz78667NBa+GL5+W6n0wz23vYD38r/3uOb30vnCrj73xJVtWr6eyvnRm1nfQCgYd/LvfP0nL/LfnN5EtlsLe8y6bKZTe/ZNZpRBlxlP3nMfm/u2c40yqRi373sJx3oO1va5aqwT98WH7zbVvmtPltZ7xplX+Hv8ZqRK3mhq6PTqfJLQ9dIyO1HHlNhHvLDwAAAAAAAABZauvWrVJZWWm7kE+6dOmS0bA0nZqlGbln6YYN5eZZ70WaSlCqdPhU72HqTS9j9mtp84RaqfUChpByWV+ljZY689p5/3ATvZ32l86mOmmNVG9cG8olQip3maZONalo66UdDdBt4Ag56qij5Kgkg1Kpmi3Pa1Aqg+WHd0aFOC2LZeQVN7sB3BfPy/P/2e32N4rlzOsvkcGtRfbMeVie+KhaKmfdJ/fPcYbpdJr877hwUCqyWxYuXipdO7WRYT+4NHIaqs9oucQGQUs/D65CP2zcz8NBqRo4Ws4coi92y55Dr5Sbx4TDImlZIqedOdK8LF+6UqrNq0glF94ZEYJJpwFy3i03yChdno+myetf2P4xLH15snzkbLjCU2+WW/3TdhQ683b9taOd5d8tc559XdbY/g3WabTc+vNwUKqKR90oEy7UYK5CXn31PWeKKr31XbGpzJTFkmOO8YXiDmd9fuvH50vPdl2lcM0KKbO9/YaN8wWlyvuMvl64RFK7zCHabnn/7xqMO+v2jFvllm9Hre9hl8qE60+Q1s5wS5+eIUvr7WQirUfdELmdnLI96po75SINOze9JDPmemW72tlmGpQ6e8SlkUGpKv7alfK/P9SweI08/3dvffu0Hi0XnWODUmWm1/DyH6nh62PwmPPdoFTpZ32fBwAAAAAAAIBspWGZhmZayxD5Qbd1poPSdGUkLK2scNP+Tp19aU8KUv2cN70msaHCNKUr0l46l/gb220nfbp2MCuwtrpC1iZ/69WQLz/9UD78MMbj04a1z7170Yfykb448iw5zXdv0bBiOfZkDYd2y/uLlri9PD1Hy/WXDZbWUi1vPHqj/PzRebJHusqZN14qIyOqEbaRkZdOlj/8+Tm549TgwLt1Ybwbrw6WY4ZFf66rlPR1Xw3+2rBQLVBPYVcbcm3bJtvcVz4j5fwzfIGWp/BYOe1UbbS0TN4rDYoEPWtk4VyNYAvl1G+ODKwx2Wb4MXKCNtP8xbuycJPbr6F6njVahgXc9rZk1H9Jf+d5z78X2lqz6a3vDoVus7KrXn5CXlqwRnb7Q7YDz5c/PD1V/nDbaKdERHO2zxEB0+lZ4rzjcK8GSF/NQpk3S2PJYvnWmYc7S1df4XFnyZl6eKh6Xd5b4fYLK5Qzz/aH91bLEhn1TbeW7JyPFppn2fmxfGh2iJEy+qT6S6qKjznRLFd4ffsMLJED6gWPDS3/URq8PtrIgAODlw0AAAAAAAAAsp2GZr179zb3r+Sx7z90W2dDUKoyEpZu3+7W8dP7laYj1c9502t8NbJ2Y7WpNdqisLPsHxWWtOzVUdqbNbhTKr7aYvpli/I1Nu75dKr89Kpx8uOAx8+fXWUG2fPZmnq1CovPuFEuGdJGZFOZlO8R6XLGDXLR8KD4MNLuqmopW/WxzHvjeXnk1zfKL56sFzv5HCQl0bXxGqL3IRG1M/16lmjsKLJqXZywdOeX8uU6fbFH3rg3eJ39+KpHZLYZeKmsyVDV0mEDAwJe1bu/HKLPe1bImhiVqZNZ34XHfEvO7anb8j358+3XyPfPGyOX/exOeWL6PFlVUa8OpY+zfYLuSdquUPx3UU2bU7bcVThSBttmb+srkYMG6nO1rPkqer8fKYfE+FxxyUHuiy/L3LJdvsYGoAtl6s+DtqvzuO15t6Zs0PruW1IvuA+SWvmP0uD10V9KyEoBAAAAAAAAAEhJRsLSmhq3qlrLlum1+Zjq57zpZUzVHtuMbgtp6a/OtWOtVFS7NxSurV4n86Nrf85fJ9vs/Yb3VK2XiHylS1vRCogauO6JUev0gEOPcpvW9T0GdMlMu5kVFTYU3Fkh5evKgh+V8YKyYjnyG27AqDXWivsWB9a0VNXLX5dHxl8qF3zn2/L9H46V/7lxvEx8eJq88Z81Uh1YP66RdCy06zxNVc66Mi92S3V5wPqyj+qG1qiM0ibFTZ7y+m53uFzy6ENyy5iRUtJJ398tlcvnycuP3yk/vWyMXHDNffL6WnfQ7FMoXWygXl0dXZe4gxQG1MgNVBHetpUB29R9VKRVWbZpy3+89QEAAAAAAAAAAFKVkbDUCzvTDTFT/Vy6oWwsOyu2yy7zqp20LzIvjJ3lVbJTXxS0kBYtYj+MmmrZvNa3HC27SHubk+zcGnBP00bWpp0bbbY+a4K8+Pd/xH9MCmiCtXyGPPBnr1bcbln6p/vk1YDajdULHpNrf/awvLGwWtr0PFxGnXW+/OjG2+SO+ybLX599Th682Atcm8CeBqaY7TrYQHiw/OjxgPUU9fjRcDNwg0U0ixuLLfJpr2+9T+2Ft8mDf35OnnG25R3XjJVRw7qacHnP2tny6A33yfumsGebaqm05a5n1+imbncnt+7Ufq3dbdt6tNwRsC0jH5PkzCRrPDd9+Y+3PgAAAAAAAAAAQKoyEpa2b+9GTDt3pnHjTkeqn/OmlxnbZH2VTYnadZAeoRx2i6zd4vZv2bmfHHnkkTEeB0lXE4rWyraKtW64anSS/Tu71d5qqzfLl03VcrBV0tc04BrYxG5iZfLqA0/IUm1+99uT5Dff7uqMaKk88cCMqHEtlefvmyGV0kYGX/GQ/HXyBLnhirFy5qiRMqx/sRTqeqnJcDXMeFatkFUxAr/yNW6Tw4P7HmCeA3UqlhLTjO+qjDWxm4yVa2JsoS+Wyjx9bu01h5uZ9d2m6wAZdur5csOEqfLsn2+TU3WZ98yWhSm0GJsR3UtkgKkKPE+WfmH61FezRlYs1xeF0rUoupbmQlkVo0Zs2Rr3hp6tDy5xLwTodZC9z2rsJo1Tl+Hy3+D1AQAAAAAAAAAAUpWRsLRLV/duflVbqsxzqlL9nDe9hquRqs9Xy2ZTrbSFdOjWR0Ktem5YL1WmldrW0qmom+kVrLP0saGoNnm7ttJ9qdqV9JLOJvzYJRuXfybl8Vq9dezZsELWVmWmDmrh8GNlmL5YNkPmBAYvu2Xh5LFywQ/HyXV//tjpCit77T55YrHTp/toueGCwTL4ghvkzO7O/C1+Qh54zRfsla+QpWbT9ZcTvhZws8SaNTLnDXMXyCbyvrz3UUAqXf2evP6GLmGJHDMsXm28wXLsSRrE73aGf08C8+3yGfKL74yRy666U1439zdtuFVvzJY1AZt96VszTNOxrU89xt2Waa3vCnn97nHy4x9e6mxT28uvU4kM6GVfN7WWh8iwb2jgVyYvvRpZBj3Vc6fLq7rMrU+UkfY2pGFlMvv9gFRb18O/NPltI8cMdS8akE7D5BhTE3ipvDorOAnfveAx+e8xY+XHP5kqCxPsq0amy3+D1wcAAAAAAAAAAEhVRsLSHj3cNisrKytk547Uaonq8Pq5VHjTS1vNTtlWUSarF38syzbsFL3taIvCHtJv/3DzvuUV292mc9t0kKIE2Wy7np1syLpHqsp91dZaFsnBA4ulva7lPVvki0ULZMnnG2V7VAqyZ4vOy3xZ8HmF7DIz01a69dzffTNdXU+Q887SYHCNPDVhkry63Bf91eyWNW/cL/e/Vi17qnbLkcceHr6zoja/+6elzpJ0lTN/cokM0wVrd7hcdNVpUihRzfGGasItldlvrIwMFyuWyqv33CZPxaoh1yh2y5wHJsgL/mWtWikvTLxf5uwRKTzjSjmzj+0fw+CzxspgZ5n2zLlfxj8+T8r8IWbFx/LEb59wlna3VPc+UY7qbfs31BfTZPzDsyOmteaNSTLpH85+0XqwXPKdw92eaa3vrnLIwa2lvKpCXr73MZkXtatVf/SSPL/MedF6pBxyoNuv6bSRY75zvpQ4r6pfu0sm/sNZJt86qF44VcY/MNspi21k8GXfkmEBrW+vefo2uX+OL8CvKZM5D9v1MOgSuegYr2R3lRO+N1p0V9bP/N/0yGnt/uJ1eeChGVK9p1p2H3mcDEum0mYGyv/SVf7gtuHrAwAAAAAAAAAApKagzmFfN8iqlSvkq7VrpV27/eTAvn2Tuq+o3qv0i88/T6kZ3v379JH+AxJVqdosn5WulC17bWcCLQp7ysBBB0onb5Zr1sqSBetkW61I226DZNgA0zZrHDWydvECWVftfKBFB+k9/BDp41/86jL5bOVa2WKSUEvvd6rPdbVS69sCLZ156XvQgdItKqzZvHy+rKysEWnVWQYccbDEq+saUlMmr955rfxxgZvOtu5SLF33E9ldUSaVprnaNjJs3ENyxxm2VpwOf5sz/OLdUnjqbfKHa0bae3iqann/vkvl/+bsltZDrpQH7xwtxc4ylk2/Wa57XMNVR7uu0lPbJN5RIeWVzjRbF8up3xws70+fLdXOZ/70azesMrUzxz0mS0XvH3mlW2vSZ+Hkb8uvXhMZfMVk+c1ZUTX2Fjwm3719hsigK+X33r1WQ+MbLIOHrJKlzvy7y7pbKtZVmHlrPWSs/PaW86W/rwXnWNPR+1D+dOIMKTcfLJSeRR2cdbNNKsqr3XH1HC233ufMdwNbg/amf8wZo2XJazOk0ptWtbP+TLXmrnLmbQ/Lj44MTyit9b1zqTz1y9vkhVWR5cA/nWN+8lv535PsOkiwfUQ+lj9+Z7y8GvP91JTNmiS/+N17Yiple8sUmrc20vOsW+XeKw73lUVv+sXO9t7tbO8Kad3JWSZngOqNZVKtK6f7CfK/k26UY0zzxWFlr42X6yZ/HLz+HK2HO2X7NrdsK13f/+Osbzljgrw4zobWPmltD+WUsQuccqzBZ2HPrlL4NWe6V4x0uhqyPgbLjyYnf79VAAAAAAAAAAD2NVVVpklIKS0tNc/JyEjNUqUBZseOnUzwaQLQBDVM9f1Ug1Idf+KgNEktWkrbws5S3G+oDB/iC0odNV9tMUGpSDvp3DtRUKpaSp9uhe7KrN0mFWuibpxZWCwHDztShg/oI906tZPWLZwha2ud/9ygtEWrttK+S085cPAIGeHMS3RQmraWxXLmbU/K7395vhw5sKtIZZmUryuTSukq/b92vtwy+blwUOoINb/b+gS5+lJ/UKoK5ZhxN8gorXXpa463+KxJ8qCO/8BCab2zwoy/QkrkyDE3yoOPT5arLz5WjtQBF78vH6ZWgTgNB8lFdz4kt5x7uBTu1GV1JtjlcDn1mvvkT3dGBqXxFA6/Uv4weZJc9V+HS8/99phlKi/fI2162nE92vCg1K/rMVfKQ3dfKaN6i1TotHa0lhKzfaZGBKUqrfXdbrBcdPdDcscVp8mw3uFyUL670JaDqeGgtBkUn3Sz/GnybXLRKGd9t6l2582sg2/JVXdPlT9EBIN+XeSEax+We684QYqdtaCf272frovb5PeT6welqviMCfLXR2+T8742wPm0+5nySmdMA0fKeb+cLM/eHg5Kk5F2+R8+ViaMOVy6tNst1eXOPHy00jS5rNJfHwAAAAAAAAAAIFUZq1mqdu/aJUsWL5atW93UtkuXrtKpcydT21RrmmpNUg1H9R6lqTa9q0HpIUOGSJu2bW0fwEpYExL7FmpSAgAAAAAAAACA+pq1ZqnSIPPwI44wTeUqDUS19uiypUtk8aefmGftTjUo1fHpeAlKAQAAAAAAAAAAAGRKRsNSjzaVe+TIo+SAAw80NUKTuX+pnw6vn9PP63gy1vQuAAAAAAAAAAAAAFgZbYYXaBbN1gyv1xxsqvat5oLLpt8s//P4UtuVvMFXTJbfnJXOvVJphhcAAAAAAAAAANSXTjO8hKXIfc0Wlq6ROY/PkCW2K3mHyJlXnCAltivXVS98SZ6aW2a7ktfz6LHyrWGFtisVhKUAAAAAAAAAAKA+wlIAAAAAAAAAAAAAeSmdsLRR7lkKAAAAAAAAAAAAANmOsBQAAAAAAAAAAABAXiIsBQAAAAAAAAAAAJCXCEsBAAAAAAAAAAAA5CXCUgAAAAAAAAAAAAB5ibAUAAAAAAAAAAAAQF4iLAUAAAAAAAAAAACQlwhLAQAAAAAAAAAAAOQlwlIAAAAAAAAAAAAAeYmwFAAAAAAAAAAAAEBeIiwFAAAAAAAAAAAAkJcISwEAAAAAAAAAAADkJcJSAAAAAAAAAAAAAHmJsBQAAAAAAAAAAABAXiIsBQAAAAAAAAAAAJCXCEsBAAAAAAAAAAAA5CXCUgAAAAAAAAAAAAB5ibAUAAAAAAAAAAAAQF4iLAUAAAAAAAAAAACQlwhLAQAAAAAAAAAAAOQlwlIAAAAAAAAAAAAAeYmwFAAAAAAAAAAAAEBeIiwFAAAAAAAAAAAAkJcISwEAAAAAAAAAAADkJcJSAAAAAAAAAAAAAHmJsBQAAAAAAAAAAABAXiIsBQAAAAAAAAAAAJCXCEsBAAAAAAAAAAAA5CXCUgAAAAAAAAAAAAB5qaDOYV83yJLV62TKy+/I3EUrZdfuvbYvsl3bNq3k6KED5PJzj5dD+vW2fQEAAAAAAAAAAPZdmzZtks2bN0tNTY1UV1fbvvmlbdu2smvXLtvVdAoLC6Vly5bSrVs36d69u+2bGVVVVea5tLTUPCcjI2GpBqVX/vovhKQ5TEPTx375AwJTAAAAAAAAAACwT9OgVB+dOnWSXr162b5Na968eTJy5Ejb1Tyacx7Wr19vgk0NSzMZmKYTlmakGV6tUUpQmtt0++l2BAAAAAAAAAAA2JdpjdLmDEohZt3rNtBt0dwyEpZq07vIfWxHAAAAAAAAAACwr9OmdwlKm59ug717m78yZkbCUmqV7hvYjgAAAAAAAAAAYF+Xr/cozUbbt2+3r5pPRsJSAAAAAAAAAAAAAMg1hKUAAAAAAAAAAAAA8hJhKQAAAAAAAAAAAIC8RFgKAAAAAAAAAAAAIC8RlgIAAAAAAAAAAADIS4SlAAAAAAAAAAAAAJK2bfplsva4AaHHuukb7Du5h7AUAAAAAAAAAAAAyBUbZ8oNl0yUo81jmiy0vcPWy6aN9mWmLPh1RDi6ZeIs+4arduLREe+XLbBv5ADCUgAAAAAAAAAAACCu9fLy66X2dTP5ZJobkN70obxre4mslitscPrgJ9pdKg9e8jf5t3kPySioc9jXadMNkHGnj5XXL+wnHW2nZ+vi1+W0SXNtFzJt7hO32FcN5Rw07pwiE1fYzpB+8vgTY2WY7XLpjjtdptmukIOOkhm3nS7dbSdy28K/TJQr3rQdcYz92S1y3WG2A0jE+XFww7pT5f7TetkeyDl6FZzz404uvpztiMT0D4K7V9uO9PA9kwl6dWov6V5kOwEAAAAAyDHz5s2TkSNH2q5khXOPTJxfSHkefOdF6k2/3jmTLnLLPVfLuQn+dk9vPWRWpuehqqrKPJeWJh9sZ2VYOvbmn8p1Q9rZrgDbV8uDV02rH66hwQhL0VjcsDRo+1v2YM5JbKTElpvjCNpylw1L3+WYD+QO3W9/L3Ir+ywAAAAAIEc1NCw1Gng+K6V58M6hBWYsHn/W0jhhqd6nNLr53SAtbpkrvc/qYbviIywNcvk4mTsq8WXqSdUwTTCuxq6l6oa+2+TlSyZL/TV0tDzy6Gky+PPXZaocL9f1XZ8VAXDOhaUBNUwaOzTZ9PojMvq9gUkdBM2wT3aJcfBy19Fbx14ul301Ra6Qs2TuD46w7+17MheWxipbnnhfFgmYL5zlcnISXyJBZc9o9MDHXf7V37XrKZV5ziWx1m8c8fb9+DWbk/vhEMw9fkmichv6MRPDKcH7v5nvffzYEF436W6HqH2isUXtc42yjZIoLzP2/3fS30VIXf1jRkOOEwH0GPdiUWj7md8LX30jR/b18Pdwer+5Yn+Pp3bBVIr7vn/flcj9GPV/izf04rW8+P4CAAAAkNMyEpZa6f4Nlco8uOcq4p2fiP7bjrA0lbA0y+5ZerQ8MjK5MxYdhxwvj5xuO2KZMtltu9k8SmW17JQPn/a6JzZ6c77TJi1xplkkh19ue/hdfoQc1X6nLC2d6wx3rxydNzVlw21nhx8BQWkS9OBw9N0ijz9xiwl53cdZ0v/JKXL0X5q53XCr+2nfkLHOMr9l2gmP8skbzkG1i5x8RC8Z9gNn3jmZlKRecu5t4W0+4+IubtAUKgNpBqXp0GA0NF338XjfD2X0nTNlkx2k0RWdLvc/wcle9e6TbwTcyNxl9jFvO/2sX9S2a4L1Z7aTN73L5ZaD3B9RoXmKsf/vU8cGDYfi7huV8lbpevs6dzTKNkqivHQ/7WqZS1DaCPQPCxvyhLaB8/hZF5l4k3ffjzxnfr+4L+MddxOJKNP6uOcoWXV3I67jfeb7Uv8wf0Re3mg7/TQQTvU3iB6b7UU/0dvihtdz75gMAAAAAM1hmvM31NGXTEv7b+TESuUtvaj7lG8kGZQ2tpOk7T9WSp93Ax7/+G22BY9Jya55Pn2gDG5vXyfUTopK7MsGuOU3t8izN4+V183JgZ/aAFZrffpOGDw6VsaaoT1nybPee/r4zVm2f7Tp8vE6kX4joz/vTHegU6LXLZGrZ4qpgRoxDa0R6xv/szZsrTec3tc1NM8uszxB4ey+5pNpMWopHiHX3XOUHPfmJ6EDk4aqD74+U24wwaw9uaQnkyICW99JJ/Oec2AzJ4/s+/XC140y7c7w52OfTDpCTj7FOVi+WP/E1cJ5q0MHNxP8+qahNUxC0w7Nm54ci5yWGS7ipJgeFBvzoNxQMYJjh1kfmeLfduYRuU7M+o7xXgQ7nlROFg77weVyi3wod3mfMeUp8qSmf3vrNrzBKZ96cl6nZU4Sxyyf4SuX9AvYzFe98bvlJPRZf9m1Zftlf/lqymA3DfVOpkc/NPh0aO2mBgXlMde5K3ifDOCNJ40LNoLKQnLHBlfS89icViyXf8eZr3e/Sn5fS0mcY4JZb3+ZGbHfRO/z/mPGDTMiF8C/jfS1fxvqIyL4iShndl9Mcx80820/6y5DacR86nQjykRUmYxXXuK9t69b+BfnD4ugmt6HjTUX50yb51uP8b5r4h1v9XNac37FhzLaGeYdZ5jRT1aKvDk964/J5jvmRf/39Wr5UwrfkXFpmOkc06fdHfm9HFweA74PVbxjuXkvuDznTpn3lrtSJv4+uqw47/3+Q3lXy1XS5cj53RjUqofdFpFheJzfFyrq+PaW7R0Stb80WigOAAAAAM3GrSiWyrnkpG0sk1XO03H7x2pV7xM5ud65UyrYpCIXA96Q7kVH21cN029IB3nL/OF+r1w9M9w8rvfH/Mtb+sl1oUBUg9IjROZ4f+y/Lh92PkJevzl4XibOWi1b2/eS4yJqwZ4lh/d2dp3l0223j2k6WORlO+2jn14t3Ue5gei00vXOuDqIGw2IjD2il3SMCI11vBvl4ym2MytpwBkOONwg5Kx6YXIiGqwdd/GpwcGIqTkQGZpMe3KjXOYdIEzTax9K/1AIo7V2ok86OQc2bR7Pe//z6ZEnhVasFvmu/bw5mfS3mCfWho0+So6rFxC4V4KMHVm/NpKesDNNK5pp6/i1NoueOOwl3zi2iy9MWC//fq/SmZeN8pXtI598ItNOOazpalamwISIB7knNaNPkOkJfm3uUAOvhjT5ZpiT0JVyyz12/Zny5WxPu/10/V7xebhW4YyLK+WKoJOKvvGk1sRg9HZK7N0nl0s/O7/XFccrn1qr1l2Puu/Uny97ErWvVyMqoOw662KiNvVo3nfWzQpfsJujGtz0tp7gjXdMcMqC25y2fT+0T0bxjyfNmoYRZSFqX4h9bHAkO4/NLugEv4/vQpeMSXBMMN780DTl6a67yGO6OT6FjhmXy8mfr47dPK7Dvw1NuBYKfkrlQad8iAn2nffvKZK3NCDLlDeny1sj/dOd6DbraqalFxH9O7RM+0ZZagz63dxFbhkdvP+a2rzevp1MuYp1vD1srClnbg33sXK8M95QKwlZXlt40+t/C9Uq9cT7DZSyww5z1mOlrEpYVgO+DxMdy2PJmTIfDojNBUL1yorb8oYpS8kGpvq70fltfnLQby8tp6Hf0wl+X0Sv+585v/f8zVib/cXXGoypuZpfF2IAAAAAyB/vPjmlyS8QHfaDJmxtcR+V02FpxqxbE76nqDaPK6tlqq+J3om/KJXVvQ8xgeXYmw+RfutK5YJQIDlXrn5ptciQIyTwbp8zl8vS7e1k8BHhMNWMY/tqebleqOk2Q7x6ju8epzOnydTFIkeddJYdV7hZ335d2snqdRul30Ab5F5e4sybb1n2Wetl1eci/XunEI74A0TbvGE4iHDDrUhd5Jb/8U5C9ZJzv9sv8iT+QUfJWO/z9sTe6jLbHa1ouJx8UGTzkpte/7dM848jpFSmPSm+aTsOGyuPn+LW3Oh+xEBfrdn1snpFPxnrvOfV1tQQOSiAzQ7hE5v+wNQflDYo8PKYk3v+q2bc2r2xBDZlWTZTbjA1LdK7+qZ7b6c8fV6W+CSl56CB8g1vOkmVzxhM04j95PFQUOes8/+JDElM2Q4FAe66abTafE3B2d4NLjeprvOIE8iecBDWoMDfXxYixD821BM4j1nC1KbzLjhyHr9fbt9QsWufpy2ZY0LMY7q9sOW7vu8D3afM6xh8zaGYY7YX/Ggo4UznVq+8OuXusjjHppT5lsGdrm9ft99D3jLtM2Up08xVml2kfzLH/WTK1b52vDVlRwP+fnKLBnK6fD/T/aFSJs7wh8QN0Uv6pVtWG/L96ZeVZT4yKI33vae/a5INTDetc7bnQUWyv+2OKcHvi02ly+XdiOOobif7Wuf9Rf1N5Vunzra69WLnb6yMlRsAAAAAyAa2oljE36YZUlQs/Z2n3D6vkN2yKyw1YaB9nZB7v89MG1vUQaR9P7nOFmr3cUSoNqcGlNL7CN97zuPCftLRvl/fXLl63kbpGApTj5bj+raTrZ8vD2g/ukiK2jvTGOUbt/O4bogzTWOufLVFbI1aW4t01jbZ2rmLaM1Mbdo3sLZqs9BgLHI53EfQyacjota3faRUu0Kbn/WdfHceia/eCH/GNH8XIepkaXFR+IR3ypx18V1/U2ZujdDjjh1ef/nMidpK0fui+ZdFw0TDHBR9J95POUzG7t9FVq3Tg6Se1I9ROyBraLkIB6besmUsKPXzNQcXWn8Ocx/ZUFgTVKvBWf93fyjvxqpp0WTilc9ggSc97RdpzjEnqxvhh0VcMdb5Yac6ZdZtRkPfCzq2TLtb7wng3oO4USQ6NiQxj1lrRWVETc2IZk4zKcYxIS4bnvUrtt0qzX3K7J99iyOO+/s7x+/GEyP029fKkm+7Bj8aWHtNa8RFjC+qxmE65SpHmQu9nGcNvb7h9nJ+H9nQP+KinAxJVFZjSvH7M+vLfPJBqSeVwDQZiX5ffPVVvOObXtwX/t3nPZL9bQMAAAAAucBtQbMxL7y1F2kn8/d36FxFvrQUlhlZVrN0rrz7+U77OgF7v89GsX11veDNbaLXvr+uNOo9ffhqg0abskZWi60Rau7LulHe8tVcjbY61MSv7/ELNwSduHyjdOw7UMae3kW6b98mqzVgFm3m92jZv3O2N8GbKb2kf1+xAaHHH7hqU3jxeCfRpsuqi93mEM0JpcZkairZGlMbF8hbK/rJZTFPdnXxNesXfrgnx/Sg6NZS1RNX2ka51iCS9xbIJj2pmKVN8DYp78vA1xxcuHaD8sqKbZ7PnISN/OLQLzetuRLZnGLygkKR5DVD+cx7idZ5+OIPLUvuCd/IAEZPYM/QWjKJmntskHjHhsTz2OxsAO49IvdLH71vo9ke+sjAj7qEx4R8lONlqbH4L0jy+MutvYWAkW/lylneuzTcCmgVw9xuQEPNjBz/NFjzX6AQr6xGS/f7M8vLvKnVaV+nY8WHMi1GAGxawvDfzqERuScOoh5pNlkPAAAAAFnD+TtZbx3TFBU+Qn9/x711jPO38U1aEUj/ns6TlsIyJOua4Z026V55eZ3tiGmjvGzDw0ybtnGbiO++oNFWV+4UsTU5kzddXl680zSXe8tJ/aRjzKZyN8rG7V7N0Rg0eHXm7zitvWRqp2pt03ZSdMRAGbwlV5vg9U5uRT3iXAk/bKS/pmaKbFOIehCLfXV+1MnSso3mAJNU03yBjpCxF3cxNaYWznAOVrFCTXuiNmaTvg6z7F8tkH+/J24tNv3Mio3y79Ll0j9rm+D1hGtH+L375JSM3fjaNAWn931L+CXlnRx17zMXbvrTPUlrvnzenJ5GDRNbczjGzbYTSqp8Bgs86Wlq5uzDbK2vBtUESmGdD/uBlhk3aPc3ra3Ngnu1lhvlHrBJHBs8seYx27jz6T3cGuf1ebW90g9Nkz8mBAha72nuU0HNc5vaWE1tXytLtunVcFmKfqTSnLp7QVIyTYM2qFzlIPPbRf/Q8jeJ6zFNqur3T+xQLml6PPZ+b6VQVo0GfH96srLMm8DePUYm+3vJ3OvVhttx/2j3X8wXzVwQ4IbGiX5fmFqkMY9v2rRy9EWOAAAAAJD7zEWhKbWO2UB6DsRcyO2eL4s+H6p/C+oFxNoq1HEXfy+t28vls6y8Z+nEXzgbenGMGqam1mecWpwNNaVUPtxeJOf+xt4HVF0+TuY+Mc40oztt0hJZ3b6fXHqz/x6kP5W5j46NG6BOK10vW3sfIef23ikfzooV9HpN9h5v7o/qOloeefQWeT00PQ1Ui+SoIe1k00a3dqoGuP2G9JNNWdMEbxM4zL1n1RX1TqBrGOceEOLyn/D5ZFpAU2D+k6XuvZaOu/jUBl2J4d5vdLpc8WYX3z3MotlQ9W7/crlhcujgp00Cv/mhTFzhhbd6Emq1THyyS5Y3wRsclHoyGZj6T9jpl4S/yT7zpeEP4s2J2YAmd+3J38htkdjCvzjLKP77Erone0MnXTfOlD8lakIwYfmMwWtKMFQj1lnnv9dwPnwPxVyi26rJmkOMt85NIOsrB6Z2eFCTu0fIdc4Plnef/Fsj1EhKcGxIeh6zVbhml3nco1fKZVCcY0J8dr2/6B0z7D5lXqdIQwl/mJ7MsaBR7OtlqWGG/eAsGau1m6NbFtDg6O7VtsNKu1zlGK+sxvkuMReLOM/hfSUNdh2H722ZxG+iaOl8f+ZEmddjZHKBqZbFUFCa8I9293tLa9NGrFPdFnolsrfNE/y+8C4WCoXlzjoN7w/OvJvbUfi/G/U34cTM/e4DAAAAgKZ0bDNePK0X1NqWr9yWkcIP729gDXHTvYg4n2VlWKq0hqnZyHPcv6pDTdNeNS1xENYgc+Xqq0pltf++pKNEXg4FtNPlgqdXiww5LfT+dX3Xy4OJ5mvmNHlLa8xuXy/vxms+eMpkeXCxyFEX2mk/cZoM/vx1OS3UbK/XVHG4yV0TxMpO2bjG7c4l7g6dRLgZwFz9/zMJ3WPKfUyRiX0THKxCQav9zItFMkMPMCuWy79DJ3G09vC/I8bZ4ANMkb2v10ED5Rtxgiu9z1TE/DnrR5wDXGh5iobLyVoDK1Q7tZd849guznij7iWVZUyImKAZOT0B2NBwrPtp35NbxLsnqfMl8dU33Gb43vzEnAiNfv/ouytjNklgho04ORhlhW889nGFOOUv4uSkF6BNcYf5vchlOj+xJCyf7vY2+069+bInUz/3mjG1+0MONnMXOtnbFBKt8+j3TbObMWqrmWEz1RxlpLjHhlTmMRfUqy2YuNmQ6B+I+tDjSaJjQiJmvff1Pj9FVh+bbpDrHAvuOUrEOxbctFFO1vlIu8nu9OVVWUqZ21T7487vPXfd+NdDuCw2tFx54flor+aevaCqIbWoG4d3gUC8C72UG2zq92Kytevr7bM3LZeT74n8/Rb/N1HU92GiY3ksOVPmEwemqQWllrP8eoHKKv/28Mp76PdDot8X7vEtNA5n3d/ib5bamYZpqj50/9kp8taxjXC/egAAAABodM7fR6c187lW/TtOz5dFVDboJ4/b82j+v6sbQ4eSgc7/Z8mubw+QtccFPL79c6l1hmhR0sMMnysK6hz2ddr0j95Go7U6RxWZsPSCvLgfZ/PSnalJ6FX80TU0oqVyoieTzNX0esIun04ON76Ff5mYVK0bvfKlsQ/oyG7pBKWUG+QiU9a/+gb37UP2sr/X9L7M/mDLPU6L3BLxW0lrC+qFUfoHGvdFaTy6nv8mq4/9hox1/kAP/05eLwtff0P+9F6R3Nocv58BAAAAIMfMmzdPRo4cabuaR+7OwwbZ+NOjZdd7ttPv2N9K53vHSAfbmYxMr4eqqirzXFoaoxJUgKytWYp9nHf1g3noPSMBQJXKtKaqUQo0peimPm1ZH5v195pG/lpvbkOgV6dellQNQLe5Vb13yp9oXrURaS3Pq+W6iKBU9ZJhp42V+wlKAQAAAACNrocU3btS+rwb8EgxKM0W1CxFhCarWRpB7z8V0BQvNUv3KdQsRSq82qWUh31HsseAWPaFshC9DijfyGbp1PIP6xJV6xQAAAAAgOxCzVLXvjgP6dQsza6w1AajySJAzTzCUjQWwlKkSk/UT+t9NeVhH0FYioxIphn/BChLySiVl1/X+7Cke0/J9c7n1zf/fVwAAAAAAIiBoNJFWOrK/pqlaFLNE5YCAAAAAAAAAAA0DYJKF2Gpi3uWAgAAAAAAAAAAAMhLhKUAAAAAAAAAAAAA8hJhKQAAAAAAAAAAAPJGYWGhfYXm1r59e/uq+RCWAgAAAAAAAAAAIG+0bNlS1q9fb7vQXHQbtGrVynY1H8JSAAAAAAAAAAAA5I1u3bpJVVUVgWkz0nWv20C3RXMrqHPY12k7+pKJ9hVy3dwnbrGvAAAAAAAAAAAA9k2bNm2SzZs3S01NjVRXV9u++aVt27aya9cu29V0tBlkrd2rQWn37t1t38zQAFaVlpaa52QQliICYSkAAAAAAAAAAAByUTphKc3wAgAAAAAAAAAAAMhLGQlL27Zp/puvouHYjgAAAAAAAAAAAMgnGQlLjx46wL5CLmM7AgAAAAAAAAAAIJ9kJCy9/NzjqZWY43T76XYEAAAAAAAAAAAA8kVBncO+bpAlq9fJlJffkbmLVsqu3XttX2Q7DUm1RqkGpYf06237AgAAAAAAAAAAALmlqqrKPJeWlprnZGQsLAUAAAAAAAAAAACA5pJOWJqRZngBAAAAAAAAAAAAINcQlgIAAAAAAAAAAADIS4SlAAAAAAAAAAAAAPISYSkAAAAAAAAAAACAvERYCgAAAAAAAAAAACAvEZYCAAAAAAAAAAAAyEuEpQAAAAAAAAAAAADyEmEpAAAAAAAAAAAAgLxEWAoAAAAAAAAAAAAgLxGWAgAAAAAAAAAAAMhLhKUAAAAAAAAAAAAA8hJhKQAAAAAAAAAAAIC8RFgKAAAAAAAAAAAAIC8RlgIAAAAAAAAAAADIS4SlAAAAAAAAAAAAAPJSQZ3Dvk7bli1b7CsAAAAAAAAAAAAASE7nzp3tq4arqqoyz6WlpeY5GdQsBQAAAAAAAAAAAJCXCEsBAAAAAAAAAAAA5CXCUgAAAAAAAAAAAAB5ibAUAAAAAAAAAAAAQF4iLAUAAAAAAAAAAACQlwhLAQAAAAAAAAAAAOQlwlIAAAAAAAAAAAAAeYmwFAAAAAAAAAAAAEBeIiwFAAAAAAAAAAAAkJcISwEAAAAAAAAAAADkJcJSAAAAAAAAAAAAAHmJsBQAAAAAAAAAAABAXiIsBQAAAAAAAAAAAJCXCEsBAAAAAAAAAAAA5CXCUgAAAAAAAAAAAAB5qaDOYV+nbcuWLfZVenbt2iWbN2+W7du3SwZmp9EVFhZKdXW17QLyS/v27aWgoMDsB506dbJ9w3Jtf04Hx4BIWiZUhw4dAsuEKi2rk3veL5A3V9fJjj37ZrlIxn6tC+SUfgVy0zF1ckRxge0LAAAAAAAAAPmrc+fO9lXDVVVVmefS0lLznIxmD0s1WFmzZo10797dnGhv0SL7K7uuXLlSBgwYYLuA/KJBqe7zO3bsMPtsx44d7Tvu/vzll19KUVFRzuzP6eAYEEnLhH4BaUAeXSaUBqWjnxG5+/T95L+PaCMd2+ZvSLh1V538tXS3/GzmDpnxfSEwBQAAAAAAAJD38j4sXbduney3334xayNlIw1Khg8fvs8GQUA8tbW1snv3btm4caMJx3r37m3fyc39OR0cAyLFKxPq4pdEzhzcTq46uq3tg0fn7pJXl+6UJ79lewAAAAAAAABAnsr7sHTFihXSt2/fnAodNCgZMWIEQQnylheOrVq1Svbff3/bNzf353RwDKgvVplQ+/+uTtbf3Dmva5RG0xqmvSZtka9+wjoBAAAAAAAAkN+aOyxt9jP9mtUSOAC5RffZVq1amVqEfuzP+StWmVB6j1KC0ki6PvL53q0AAAAAAAAAkC1INQCkhVAU0SgTAAAAAAAAAIBcw5ltAAAAAAAAAAAAAHkp98PSxU/LuHHj5OnFtjuWZIcDAAAAAAAAAAAAkBcK6vQmgw20ZcsW+yp1y5cvlwEDBtiuFG2aJZN++bSstJ3JGSAX/vpmOam77UzDypUrZcSIETQ5ibxWW1sr8+fPl4EDB9o+DdyfcwjHgGBBZUJ1vadWau/sarvgaXFbhVTcRBkCAAAAAAAAkN86d+5sXzVcVVWVeS4tLTXPycjZs7RLnhon41IOStVKefqXzmefWmK7AQAAAAAAAAAAAOSjHA1LN8r6L+zLdH2x3hkLAAAAAAAAAAAAgHxF+38AAAAAAAAAAAAA8lKO3rN0o8z67S3y9CrbmY7+F8rEn58kRbYzFener7D81VvlmqnLbNcgufyRu+T0HrbTEfn+6TL+uctlqO1Six4fIxP+ZTvqvV8uM2+5RqZ85nYNuvRhuevMnm5HDA2bXoCPp8iYu2bajhSWL+Jz9YWXZZFMGTNBQlOIXsYE048Wf/kj16d8c7w8d0W8pU9/3iLXc6TTb31OLj/cdmSZjN6zdPHTMu6BWbYj0knXT5YLh9iOLJHJe5bG3c82zJRbr54iXik1EpbF5pPZe5bulKce3CGrTusqtxxqe3k+rZIWT4v8+85OcqztlYr1sypl/49bylfXdZRetl9MOq3XC5IbNkXcsxQAAAAAAAAAmv+epbkdlko6gWdDPutKJyhxg7n+UQGhxOw2w78zSh6eeLqYmFADlVWXh7oj37fBXn8vRHGDO4kXtDVoegFMqDNHRnkhYND4p0o4JDTDr5Hve8sfovP+jJTUCzrdZZxzfGRwGlrGBNOvJ5nlF299Rk87WobnzRG9/rNRxsPSl3rX3ydNiPqFXPjrm+Wk7rZfFshUWJpoP9PuB+W6GOUu+xCWpoawFAAAAAAAAACaPyzlLG0Tmf/OMhl06TnhcOzwc+Tyg2fK3I+1o1xmPjsz4v2eZ35fTv9sjszfoF2LZO6/RE6/IBycRby/Yb7M+WyQXP4t79ND5ehvisz8YJHtjtbA6QVY9NIUWfZNZxgv4IxaPnf5rwu/3+N0+f43Z8ozr5bbHgl8/E+Z8pnzmVBoNFTOuXRQaBnjT98NncbcMtOZE9MVf/k3OPP1L//67GnWxbJ35tvPaxg6RqbYcTd03qLpvE7Q6V+fvUFpkxnyX3Jh/5Uyd4F7h+GNb06Scb+d5bvf8BJ5etw4eXqx7XpqnEx6c5bpN84+vPeMTbNkku+9SW82552LE+9n5WuXSf8+zVcKnn/+edmwof5Or/1mzQquCdwc3nu2Qs6btV2eerDCBJAtbquUpyJme7tMNP3d96aU2d4eDURD7+ujSt7z+j9d4yzwXtnf66eihp/4qe0PAAAAAAAAAMg5hKVN5PSJz0XVDiuXNV4Tr/Z1ZCjSU0oOXiZzPtR4bqhc/lxULdENayXUCnGP0+Wu5/w1MW0I83Uv7IvWwOnVUy5rnTcHRY2vT//IwDYo9Fm2NrmwtFwncHBJRHjYUyfwr7nO0iaefs8z75LnQrU0Eyz/ujWyTPpLn9D6dPQukUGhECty/TR03iJ8PMU0DXz6rdE1a5Gslc/Old6/niyTJ0+WiRcMkFkPPC1LzDtL5OlfPi0HXu++N3nyDXLgs7dEhqlNKtF+pmVnkKx6doyMGWMfjweUmUaiQak+br/99ojAVF8/+uij5pFNgemLb+wytVC1BmvthS3k4ge9wFSD0l0y/9T93PeuaynzF/kaVDCBaK08eZ397J1t5U6pkW88u13k0E7OuFo6x9hW8pVXi9UMr7Va7fDXtZL5T0eHswAAAAAAAACAXEFY2kzKX31GZh58uZwTCkoGSUlv+9JwA7VY6tVWNLQ5WA1VJsjMb46PDGHqycT0IkWHoT37DPJeyYjjB8nMu6ZIKOoxtTft62T17xMRSJoA075UsacfJMHyR4Wf0qOPxFk9GZq3RTJF72uacNvlkcX/T55eNUCOHp5Cg9knfivUZG/R8KNlgHwh6ze53ZEOkQsnZ9f9UCP3Mw31l4kc/7A899xzzuNhuXzVhCYLTE866STp0aOHCUe9wNQLSj/55BPzng6TNYa2DTfXe2gbebJHnbz4yU6RT/fKbdJSfnpSO/e9Hh3l4VML3NdKA9E7u8hFoWNbezkl1nUm2jTw6zVy54W+5n/N+EQufnO77QEAAAAAAAAAyCWEpc3A3JdQ79+ZZjOr5j6H/zpdxpv7afr1NDVYNVh5uM8zvmZnGyb29JKnNTvHf3OmTPBqyD0g8v1L44WZ+UaD7gkmQH+4Aes5p616Wm7xNZFrHhm9X+kh8l+mpqkd91NufdNsUX8/c2uehmukO/v39ZfLoH89IzOboBajhqEakvoDU39Q+sgjj9ghs8N3i/1fZ+2kf7HIi2W1sr681lmYgoiLHXr1DPjq27BVzrPN6n4jZh5dK6ucdX/b0+EmePWx/xsNvvU3AAAAAAAAAKCZEJY2sVBQ+kh0M6vLZM06+9Jwm2+NFgpUnrtc4kVqPY8aFWo2Vj8TasZzzK02aEl/eub+n6Hxhe/duSqqSV2936Lf0CvcINc8Jp4u4rwf2TxtAqvWRoa/prncsETTj5Rg+T9bEzmtuM0QOxo4b+WvPmjuezo+1FRwHup/oUw0zeO6TeSaOou+WqKZUHTKze74r3fG/vb9WXDfUley+3XCGs4ZFh2YZmtQ2iBeSPrgXhlxodu07r8TXK9wpx0u4nFBe/suAAAAAAAAACCXEJY2IQ1ErpnaX8ZH3F9U6f0yowM1bYJzkIw6yovO3CZ2J6y6XB6ODlQ+niJjxviauI0SEVKaaTdseub+n6Hx6T0X3SZsI+8/6oaPse+b6t5XNbp52ljMPUCjAkxzr9BvHu3MW6rTT7D8pgndVbLWX3tPw8+DR8mIgGaIGzxvofuUJgjK8sohcuGvL5QBb9/fOGHmkAtNaKr3NF35wSJpvrg0xf3ahPZR99NtZP7AtGmDUrd26PzynbY7LKi2qNYiDdspq8rc2qamFumGuoiLHcznrfWf1MiLQ9uawDPUjG9MLaS/s+6D5gkAAAAAAAAAkJsIS5uI1saMXXOsp5x+wemybOo/Q8GIe0/TcDi36PFrZIpcLg8H1Tw8/By5/OCZ8syrXiBXLjMfiHeP0QZOL8DQb0U1D/rxP01NyaPtvTdNbVRfs8CLHnebnA3fszWBesu4SP6pAaMNHBNNP1KC5e9xunz/m8tkykuhd2XmszNl0PEjgtdFg+bNvU/poEsf5j6l0bqfJJdrmPnsLfL0YrdXUe8DRVbNlUX2HqQb33xJZrkvk7BEnh43LjQu59Oy6IOVMsDZTincETWj4u/XR8vpUn+/lkvPafJQ3QtMm7pG6bHDWsqLb+yUp/wXLsh2mfJGnXz38NbSy/YxFu0OD/fpbrl4g71Pqbl/aY3cO8sGnBu2yjXRzeaW1ch6+3L9rMo4zfC2k4tOi54n5/WDFXKeN34AAAAAAAAAQE4pqHPY12nbsmWLfZW65cuXy4ABA2xXsjbKrN/eIk/LhTLx5yelGHQ05LOulStXyogRI6RFi+Sz5iljxshM+9pPQzLvnoRuE71e86y+YHXDTLn16ikRzbp6Tr9Va3bqq0XONCaEp/HN8fJcgntfNmx6AbQm3F3eHAyq19Sw29So7fBPL4IuxzNSUq+ZYhW5jP51Z8SZvlnWd0ZFhFIxl9/QGn/XyJTPbGfE+nTnQyLWRZrzFtG/vnrjySK1tbUyf/58GThwoO2T7v7sWPy0jHupd+A+ueSpcXL/2wNC9y51u933Blxwgxz9wf2y7luT5cIh9j25QSZfdIg7wKZZMumXc+Vo776nOp0HfPHqib5hU5DOMaCeRtqvm1NQmVBd76k1NTfTos3kPrhXXrSdSpvB9dcCfe/ZCvmGtJQ7F9XIbaZPgTx5XRe5KHQM2S4Tb9tl32spT55aKxd/3FK+uq6j9DJh5w652As/h7aVr4p3y/5vtJB/39lJjg19NjxODVT99yn97qn7yQsazKZI73dacRPXLAEAAAAAAADIb507d7avGq6qqso8l5aWmudkEJbavqnISFAC5LiMhqU5hmNAsEYJS5PghqVtc+6+oYSlAAAAAAAAAEBY2rCw1H8TulT1JywFGoKwlGNANMLS1BCWAgAAAAAAAEDzh6U5epa2SIZ+vWGBTHPepxAAAAAAAAAAAABA88vRmqXNi1plADVLOQbU11w1S3MVNUsBAAAAAAAAgJqlAAAAAAAAAAAAANAsCEsBAAAAAAAAAAAA5CXCUgAAAAAAAAAAAAB5ibAUAAAAAAAAAAAAQF5q9rC0oKBAamtrbReAXNK+fXv7ysX+jOgyofZrXSBbd9XZLihdH7peAAAAAAAAAADNq9nDUj2xvm3bNtsFIFeUlZWZcNSP/Tm/aZkIckq/Avlr6W7bBaXrQ9cLAAAAAAAAAKB5NXtY2q1bN9m4caNUVVVRIw3IEV999ZVs2bJFCgsLbR8X+3P+WrdunSkTHTp0sH3CbjqmTn42c4c8OndX3tcw1eXX9aDrQ9cLAAAAAAAAAKB5FdQ57Ou06Qnyhti1a5ds3rxZtm/fLhmYnUanAVF1dbXtAvKL1h7VGqUainXs2NH2Dcu1/TkdHAMiJSoTqrSsTu55v0DeXF0nO/bkb0ioTe9qjVINSo8opmYpAAAAAAAAAHTu3Nm+ajitzKVKS0vNczKyIiwFAAAAAAAAAAAAkH+aOyxt9mZ4AQAAAAAAAAAAAKA5EJYCAAAAAAAAAAAAyEuEpQAAAAAAAAAAAADyEmEpAAAAAAAAAAAAgLxEWAoAAAAAAAAAAAAgLxGWAgAAAAAAAAAAAMhLhKUAAAAAAAAAAAAA8hJhKQAAAAAAAAAAAIC8RFgKAAAAAAAAAAAAIC8RlgIAAAAAAAAAAADIS4SlAAAAAAAAAAAAAPISYSkAAAAAAAAAAACAvERYCgAAAAAAAAAAACAvEZYCAAAAAAAAAAAAyEuEpQAAAAAAAAAAAADyUkGdw74GAAAAAAAAAAAAgJxUVVVlnktLS81zMqhZCgAAAAAAAAAAACAvEZYCAAAAAAAAAAAAyEuEpQAAAAAAAAAAAADyEmEpAAAAAAAAAAAAgLxEWAoAAAAAAAAAAAAgLxGWAgAAAAAAAAAAAMhLhKUAAAAAAAAAAAAA8hJhKQAAAAAAAAAAAIC8RFgKAAAAAAAAAAAAIC8RlgIAAAAAAAAAAADIS4SlAAAAAAAAAAAAAPISYSkAAAAAAAAAAACAvERYCgAAAAAAAAAAACAvEZYCAAAAAAAAAAAAyEuEpQAAAAAAAAAAAADyEmEpAAAAAAAAAAAAgLxEWAoAAAAAAAAAAAAgLxGWAgAAAAAAAAAAAMhLBXUO+zqjtm6tkgULFsjKlSukoqLS9OvatYsMGHCQDB8+XDp27GT6IXNY5wAAAAAAAAAAAMhXVVVV5rm0tNQ8J6NRwtJFixbKG2+8IUMPHST9+x8gXTp3Mf0rt1TKqlVfyqJPl8mpp54qQ4cOM/3RcN46P2T4IOk78ADp3NVd51sqKuXz5V/KkgWscwAAAAAAMmH+/Pnmb/Dq6mrbJ1hhYaH5W3zEiBG2T26a6vy72fm3wfkXTw/n3yTn36XOv1w2db6zvG84y1udYHkLneU91VneEbm9vBGmThW5+WaRDfGXXXr0EJk0SeTSLFz2SmcZNjrLsDfBMrRylqHIWYYu+9D2y6BXt22WxyrXSWXNXtsnWJeWreTKLr3lzA7dbB9klRXO/rDA2R92Jtgf2jn7w3BnfziI/aFJrN8osnKtyJ49tkcMrVuLDOgj0qvI9shdFV8ukvVL5sje3dttn2Ct2rSXXoeMkq4HDLV98scnnyySOXPekR074q+j/fZrL6NGHS+HHZZ/6yhZ6YSlGW+GV0O7D+bOlXPOOlWOGjlcunfrJi1btjAPfa399D0dRoeNtnDyt+W734l8/HGBfTMlZfLqzd+WX0wvs93R3PfD03lM6s9N5unyxZ6n9Oh6nPvBXDn9e6fKEccMl65F3aSFs771oa+1n76nwwStcymfIb/wrW/zuHmGs4ayQ2SZuFleLbdvNKKy6TfLdyd/bLsAAAAAAAhLJihVOowOm53c8yLJnHNJJihVOowO2zQ+lj820jmCZIJSpcPosPuUZIJSpcPosBHC59pinfsKn29JdfulMHwyQanSYXTYxrLgMXsuq2nOOWZ6n0gmKFU6jA7baELnLZvmnGBqdJ2ne+7aoWUkwTnYBp+jTCYoVTqMDtsoGu94nbKE+6XvuzGJ7RMhleGTCUqVDqPDJhRcFhv9HHcKy5xMUKp0GB02PYkyoUSSKKuNWC40KP32t78tN9xwY9yHDqPDNqWkypI5XjfVd17mZTQs1WZg9Y+Ak0482gSjseh7OowOq5+p54wJ8uLf/+E+bh8trz6VQuFLiu404+SPA8LT+f0VK+RXjb4hy2TNSvsyQ7x1/o1vHm2C0Vj0PR0m5jqXwfKjyXadO487Bjwm/5PKTt9INCj91cor5fd2vl68/SD547jG/3ItX7PUvgIAAAAAIFIyQaknlWGzVTJBqSeVYRvmcPnR3yfJmT1tZwYlE5R6Uhk2JyQTlHqihy2fJ7OXjZY7/v4P+c1ZxbZnpOKzJsmL4w63XY0kmaDUk8qwKVr4/gwZfMVkefHvV0qTtPNWvkYyedoxmaDUk8qwqSr7z9uy1Jwrbpz9fZ+XTFDqSWXYVGS4bDZE4v2yWM6c9A/50XDb2ViSCUo9qQwbpUmOuUlKJij1pDLsvkRrlPbq1ct2xabDJKp9mmlJ5SXr1kgupyoZDUv1fpna9G68oNSjw+iw+plURNYy9MJN98oJr3/EFRRrXgrVmgz1X/CS/FF/vPkOFMVn3Sg/GjRDnjJXHdgrCKY/ZsfpC+ciamF607dXnEzW4d1hg+azbPp9znRFlj5+nx2ff75jjyseXX/a9G68oNSjw+iwyazzYeMmyJnL3paPdPp69UP0/Oko7FURr3rLquGqGVa7vXkPWpfh5TZXeURdcRCqfev0f+q1wfKjn452vqas4VfKHWcslT/+Xa9isPMyPbxNwtvev27D69G9AuIx81542t5wtp+zDL96zRn4tfF2fO50Eo4LAAAAAIBk+P4WNX//m4uV3b89Q39fRtVE8J9n8IYxf5eGhrF/f/v/ZrXD+2sChMZz80uyxvZrXO58/XGyzs9jMjvWPJvldf7G9v7+9oaJ1d/3Wf/f55HL6/t73rwfXj+Nx38+wjtPEWfb+s9LhJYtcnsnOtcReW4j3D/i3FRj1iwynHkb95gslRnyK7Mc/nMpzsMum7ut6s9LUPmO3H7v236NTLdNsufAzDDBdDn13NLSx8fZ7effdqmeA3TLurcP6Wfr79/OuO7V9b9U/nivM2/+/Wby2+HlUP7y12jc5fWmGd7u7rIEnnMN4szr/zy+1Jyjizju2WWP6JfwHF3A+o7YdyLPTXrTCDyeRM/3+0HL49/mvv7+47+vWJtlCG0Xu56i102M+W087jLXP3bZdRlwTjaibHrD+stmQHkO3v+jtoO3vEH7ovYzwwSsMx+dt4j9MmJ9etO2y+btLyGpbc9GFTHfscuJLo+7bzhlOGi9mYHj7JOxylszLHP9cuXyl5GIbRaUCTlS+q4x5cpb7uwvF+62DvotFLn+/PtYMP8y2WV21kXsvMR5mG3ifO72Gc57zu8AZ9pmmtHlzKyfgPFniYyGpStXrjD3KE2WDqufqcdZ6aEVfbvIHZO8sMzZwMd4tR8nm3DzfWdllk2fJq96tVGjaqIuXVki1zv9f3/F4FD/sjXONAeVSOTFSMVy5AmDZema0Cflj2uOMeP8/RUSPpiPe1tOsDUwTW1UX6F7VXR4vcopeD7dQFZk8BU3OsNogRovK82VLHZcvh09PC7bIwZdf3qP0mTpsIHrvJ5iKRm0VNYkakVj2WOyxiyrhqvOD5j3db51mZfK7P/UX5cm6Bz3vhxjltlZ37PnSVnPkXLCoBWyxu4s7782WE74mrPFzZUIB0lJ1DoYdsxoZ8HXhNfVbDHb2Gz72/UA5q5bud1uA62Naraf5ezYOn29yrFsnVs+3OFGu/NjAllnOKdM6VVECyf7aiGbmq2+LwffuAAAAAAASMz5m/Xex0Ts+YBjRE8sxacnnH4lXutYE2RA6CLsGBY4f5/PPtG20uT8jb7SntwyJ7vcmn8v/rREVi5zB298S2VlyY3OvFwpg22fQMtWSMlP3WXUcwwveyfQYvX3s3+fvzjZmcZr08z6MReti22t6hg919L44p2jqi+yLGgrXw/oSUz/dnKWZ2WCcx0L/x4ehzmHpReYl+sF6HYcut7sOmk8h8uPdN2LM009j1deZreZnb53QX6AWOW7ObZfXKFzYM4+JXZbxaC1ufTcktZg+9HwTJwDDO9DwwL372I586e6/n2VDrz9ZtyJ5pznSnvO09SsO2GkO0yzCDrnGsNwZ/tf4Rw1nH3KnHvTZX/8oFC5HhAKox1JnqPzn78NPM8bY9+JKI9R5xrdcdrznqEKHkH7a+rH/7D456WbQ/1zsh/Ly4+Lbb3Q3U9eDiqbvvLcM+b3W/D5dSOp89H1Re6XzlYKOi9sh43UGNszfYHH/JBwOam3L8Q8hqWSgzTHMgeVK6d34HelKzATyvh3TXaVCyPgt1Dc42aAwN8xUXmJBH7HO78DnOFFfwfEqc2c2u+kppXRsLSiolK6dO5iuxLTYfUz9Xgry6ww8TWPe7gMM+GVBqnORrU/6ou/dqKz8d2AVQv2i6Fw1Tn42S//4pKD3B5Jcw7g33E3qhn/sjVSbpoM0LDPDXLdK5veD+2Eg0u8qQbPZ6QyWbPMhoKO0DRMl39c8en669w1+XWuwwau87SNlmN0B3HWcskgkTOP0XXmvB6g/cLc/iI9S/QHzjGmmYPwNtGgWtwvM13Hg5wfcSk0q3HmRXZ7Dz9GzhQNXXXdOge2273A3Tkg+X+U+4Ly4uGHOz/g7ZUe5sqHaG7Tyd78h6fhdtYP3QEAAAAAiMM0VRo+H2AuCE7ANH0WurB8vLwq8U8Im4vE9QSyGd49L/Hq+x+bkMT7m1zMhctm8CYxIKnzHN4F0+45hrBY/X28v897loh7SqJMPpq9NBwKmb/nG1+8c1T1RZ4bGjbOXtit2y+0nUbLb0xzkbHPdWgZ0ppSWqvlo6/ZJhfN9p0hv9JhJ0ujNVkcU8/DZZipKOCV2diCy/cnzbL94hp0pZxrz4FFVrhIJDPnAL19KNb+XV+4AoJOU0wQpOe5wvPSPALOuZquxCL2DTlcjjlD61PY7ZDkObrQ+o51njfGvqPlNFweI/ftiPOeRoz9dXHqx/+QBOelm0P9c7K6Tew83jxPjozTnK1XnmN/v8U7v57c+ehEEp8X9jTC9myAwGO+9ertemGGVtSyPfxiHsNSyEHS+A3TcMHlKvi70hWUCWX+uya7yoVR77dQguNmgKR+x6TwHR8tqfE3k4yGpY3CH07Zg9dTJZrK69Ui7iDuzmCTaFM4fTX/ApidpN4Xsf0RnfAHindlkfcIaN881nzmFPeHXElv29nIvB9tC//ztoh3cOpd4hyqfcGkZf64G1CSYCdyDvL2yhf3EfxHgfnCHbdGLtJhzJUPAAAAAABkH/cea+G/cxO2cOS/EF0fWXLPsn1eiueoUhPjXIcGN063qRFkTiZrLQ33vnumxod3UjJOTZKMW6DNF46TNRfZebC9Y6lfvovsOwiU6v6tAaC8LR8tmCezJbVKCvu2oPO8mdp3AvbX7vattCVxXrqZ6UUfXu0/DfQTN/kZ4/utCc6vp3ZeuDG2Z5oCj/muM2/3185tqOwpb+mUqyCZ/67JonKRKcn8jknxOz5Co/5OapiMhqVdu3aRyi3J11rUYfUzcS14X16NaIp1tFxkDpia0Lt9tAq12UH0QGGa/Ehg+LdM1X1/UwXu/UTtuI3wVZrmRuKayptE3ruvqTtd/8EoUv35jKRXvgRMw3QlT9fflhRqiuqwCde5Y+Hk8fKqV8PTH1rGXJ4GcnaSiwa8LU/NlvDVbdpPrxrxNWvhVq93DkL2ahcVunouVFbcdRtqgsDsvLF3usFXfMsc6E0IW497VVL9abidAAAAAACkxNRaCp8PCP8t6v796dX08P+NqrWVlj7+kv279mNzryc9eR9xMbj5e9Vl+oeaXXWv/NfzJqZ2g1cTqbH+vk8g1jxnnq054zWr2KjTCgs+RxVr20aeGzIn7id/bLeft500MND7fMU+16GfM+XhrEnhE/76OXPO6nD5UXNdyO/VYkqw7oPLd/Nsv7jnwEKtliVb4cITuZ3TPQfoibV/x1csZ150kMx+yldJoVHpMnu1l9z1FZb+uojYN5yy8v5rydZaDxDrPG+MfceU01B5jH+u0dvm9fbXmMd/u2zxjo0pnZfOFGc5YnwvqfrnS3X/1fXiBs6m2c4EYn2/uRKdX2+4+OeFPalvz8YUeMwP0aZQI5uJDol5DAvYJ2OVt2ZZ5uByFfxdad4KlPJ3TcJMJLvKRSypHjeDf8cESPAdH+uYlvT4m0FGw9IBAw6SVau+tF2J6bD6mXpC1aGdx+0z5Mzb7VULpqDZZhDudb7bbZVhvRfoCbO16rnTf9xjMsAbPia7Y0l4Om67zVGfm32ffU9sm+ru/RfEVHO3nwmshhw8n2YH0i8Yc3WHzoPbRnTccSWg6+/z5cmvcx02cJ37qtXr41crr5Tfe/Njd3Dz/r1rZEAj/cAedsxBzlxEXt2mV438/oS3bdMizuP2Fc42iKwlOnjlNPueV1bcdetd/eV+JrhMhJst+La8X+LsnHYH1oOnlkP94hk2zvlhtDLxuAAAAAAASMz5m/Wn4XML70v4RKcbZrp/f/r7u/dZs+cZvuPe+9A0bWha47L935fwlf3D9T5/tsaJNl84wN7vz+kfGk8j/n0fV6x5bgR6vsirhdLY0/LEOkcVvG0jzw2Ze69pDUGz/Va468gZh5gmFWOf6xg2boJIqBlAp7+ew+o5Wq4PnU9xy0Cs5jAbhW5nr6nY90tE7yW4Zp19L0qs8t0c2y/RObDZ99r1KVfK9aEKF4lk5hxgSKz924QbzrwHhSTK2SYDlvkqKTQqG0CYZb5P1gyIOh1e75xrkvz7hv9YmJYY53lj7DumnA6w5dF/vjpQrP019vE/8bExyfPSGRbre0nVPyerQZ3eUk/XnXt+2ewnccpmzO+3mOfXMyfWeeH60tiejSjwmG/fM7SimHPsDLqvcsxjWNI5SHMsc4xyFfhdaT8SIOXvmoSZSHaVi5hSPG7G+h3jz0tifsebgNlZx1pJMcYxLdb4s0FBncO+brCtW6vkT3/6k5xz1qnSvVs32zfYps2b5Z/T35DLLrtMOnbsZPtmC72ywL05b/pfuE3DW+enf+9U6VoUf51XbNwsM/+WrevcvSpGm1ZI2JRQiF49N05mn5DKZwAAAAAAaJg77rjDvkrOr371K/sqgNZEeKokfMFyFipw/qWizvmXdXQ93+5suySaESy4I8Xl/VUWLm+6ClJbdsncacXMWZLiMhySxDKkUH6yVorHmpM/D1XvS8pbfZM5iZo751z3GU+luD9clMw+zTnZBnv7Q/siSSceZV+kKeYxrOn2yYXT77WvkjPsrJ/aV/nj/vvvkxtuuNF2xZfKsPmoqqrKPJeWlprnZGS0ZqkGcKeeeqrMenuuCUNj0fd0GB02G0O7XOKt83//a64JQ2PR93SY7FznbpMhegVluBlkAAAAAACyU2FhoX2VWCrDZqsezr9kpTJsYzPNBpqaFM4jYU2wsB6FKSxvCsPmhB4pLE8qwzalVinMVyrD1uOezwqVMf/Dd+uv5GRyXPWZfUH3gYuSvyijS8tW9lViqQwbxDRBHbTsaTQzm8lx7RPapVDGUxk2azXuvpQxrVvbF0lIZdgs1qpNe/sqsVSG3Zfst197Wb9+ve2KTYfRYdNm7wkctJ+Em8HOPxmtWepZtGihvPHGGzL00EHSv/8B0qWze49MvUepNr276NNlJrQbOjRnr8XKOt46P2T4IOk78ADpbO9Lqvco1aZ3lyxgnQMAAAAAkAnz5883f4NXV1fbPsE0KNW/xUeMGGH75Kapzr+bnX8bnH/xaFA6yfl3qfMvl02d7yzvG87yVidY3kJneU91lndEbi9vhKlTRW6+WWRD/GU3QemkSSKXZuGyVzrLsNFZhr0JlkGD0iJnGbrsQ9svg17dtlkeq1wnlTV7bZ9gGpRe2aW3nNkhfot3aCYrnP1hgbM/7EywP2hQOtzZHw5if2gS6zeKrFwrsmeP7RGDBqUD+oj0KrI9clfFl4tk/ZI5snf3dtsnmAalvQ4ZJV0PGGr75I9PPlkkc+a8Izt2xF9HGpSOGnW8HHZY/q2jZKVTs7RRwlKlzcMuWLBAVq5cIRUVlaZf165dzP0yhw8fTo3SRsA6BwAAAAAAAAAAQL7KqrAUAAAAAAAAAAAAAJpKs9+zFAAAAAAAAAAAAAByBWEpAAAAAAAAAAAAgLxEWAoAAAAAAAAAAAAgLxGWAgAAAAAAAAAAAMhLhKUAAAAAAAAAAAAA8hJhKQAAAAAAAAAAAIC8RFgKAAAAAAAAAAAAIC8RlgIAAAAAAAAAAADIS4SlAAAAAAAAAAAAAPISYSkAAAAAAAAAAACAvERYCgAAAAAAAAAAACAvEZYCAAAAAAAAAAAAyEuEpQAAAAAAAAAAAADyEmEpAAAAAAAAAAAAgLxEWAoAAAAAAAAAAAAgLxGWAgAAAAAAAAAAAMhLhKUAAAAAAAAAAAAA8hJhKQAAAAAAAAAAAIC8RFgKAAAAAAAAAAAAIC8V1Dns67Rt2bLFvgIAAAAAAAAAAACA5HTu3Nm+ariqqirzXFpaap6TQc1SAAAAAAAAAAAAAHkpIzVLAQAAAAAAAAAAAKA5UbMUAAAAAAAAAAAAAJJEWAoAAAAAAAAAAAAgLxGWAgAAAAAAAAAAAMhLhKUAAAAAAAAAAAAA8hJhKQAAAAAAAAAAAIC8RFgKAAAAAAAAAAAAIC8RlgIAAAAAAAAAAADIS4SlAAAAAAAAAAAAAPISYSkAAAAAAAAAAACAvERYCgAAAAAAAAAAACAvEZYCAAAAAAAAAAAAyEuEpQAAAAAAAAAAAADyEmEpAAAAAAAAAAAAgLxEWAoAAAAAAAAAAAAgLxGWAgAAAAAAAAAAAMhLhKUAAAAAAAAAAAAA8hJhKQAAAAAAAAAAAIC8RFgKAAAAAAAAAAAAIC8RlgIAAAAAAAAAAADIS4SlAAAAAAAAAAAAAPISYSkAAAAAAAAAAACAvERYCgAAAAAAAAAAACAvEZYCAIDssnen7LQvAQAAAAAAAKAxEZYCAIDsse1NuWlIf7n8+fW2BwAAAAAAAAA0HsJSAACQPTrsJ12HHSc7f3mPvLnN9gMAAAAAAACARkJYCgAAmk9lpVTuta89rb4nV//vYrn1j/NtDwAAAAAAAABoHISlAACgeex9TyZ+rat0HXWNPLWo0vbsJf0PETn0R3fJ9567VaYst70BAAAAAAAAoBEQlgIAgObR6li5fMJ35dhzT5F2fxor3/vNm7J+734iq1fJOhkhV08YIhPvmyFejAoAAAAAAAAAmUZYCgAAmsb6N+XFdyKjz14X3iOXz5kmO2+cLlNGzZerz71cpi0U2em81+6/bpJ7tt0l97yjXQAAAAAAAACQeYSlAACgCVTKjAk3yT0/O06umLrYhKGu/jJ2/JHy8K9niBz/U/nbc/fI2IuGSC/zXi/57vjLZf74KbLYdAMAAAAAAABAZhXUOexrAACARjP//uNkxrHTZMRTY+UuuVWmPTha+pt3KmXGVaNl/g/elFuOaWf6AAAAAAAAAECqqqqqzHNpaal5TgY1SwEAQJPoP/BI+fTL/WT0g2/KlGHT5NRz75X5plXeLjL6l9fIRxOmySozJAAAAAAAAAA0DcJSAADQJLoc0F8WL9E4tJ0MOedyuWjbPTJ61BXy1GqnV8lFcut/TZFbn19vhgUAAAAA4P+3d//RfZV3fuA/X0u27MQGwZogUVMiTOKGHwkhkCB3kgMK3vZMDiyW1p6x3N3uJGczA0x6uhna08UOf2Ar29PxeNumhvlFpj9GcgbXNoGm7SmMYGe6/hqSEAUIWZMYQc1YYnBBlgW2bMva73O/92tLxrZkY9mS9Xr53NznPve590rin5zzPp/PAwDngrAUAPjw9vw8is90RvGXWanoiX38U7H4J9ui43dbYvE/+Ek0dfREz5NN0Xnnl2P1U33x2W90xqPLyruVAgAAAACcC8JSAOBD6X7yt+Mr926J7r7e6HxgcXz5/yrGgfzeKLX10dDdGd03b4htj/1ONKVc9OOt8cd/2R6/fUttRPXssGMpAAAAAHAuCUsBgDN3oDMefeRTse6xVdG6tDVWPfaD+NrPV8b9T56owrQhPtU4Oxoajqsera2Lutp8DAAAAABwDglLAYAzt6c3fj73krgkv0yBaOs374vOBx+Nn+Qzx9RG/Se645U380sAAAAAgPNMWAoAjM/Az+PRry+OxU2L49qm+2PL66W5BZ+Npl3/Kh7dnjfe7ftJ/N7DB2Llkg3xH7eXp0ZquLM9fvvW/AIAAAAA4DwTlgIA49AX//GB1XHgm9tiW+e2eOW7N8XmJStjy5ufiq/9u9+O7v/l2lj8Py6OxV/vjMXfXhW/s6Q5XujuzZ89pvaaT0VddX4BAAAAAHCeFYZL8jEAwEkUo63QGU3Dq6Ixn+l78rfjpv/0q/HCw78aacvRAwciZs8u3+vd2BLr5rfHuiX5BAAAAADABOvv78/OXV1d2Xk8VJYCAOPwqfjsPZtj24j/j1F75+pYu2d1PJrPVYLSeL0jfuePboqVXxSUAgAAAACTm7AUABiH2mha2hQbOjoj3520pC6a7/nV2PBkMb+O+MkjX47F/7gnfvuxVfFZWSkAAAAAMMkJSwGAcZm95L5Y9fLq+L3tx+LS2TfcFE0vdUdld9LP/u9/Htse+51onJ9PAAAAAABMYsJSAGCcGuJrD/92vPLA2ujcU57pe+mF6Gn8VNSVLyOq8zMAAAAAwBQgLAUAxu/jrfHoww3Rcfu1sbjpy7HyPy2Of/V/fDa/CQAAAAAwtRSGS/IxAAAAAAAAwJTU39+fnbu6urLzeKgsBQAAAAAAAKYlYSkAAAAAAAAwLQlLAYAPpXnp3fkIAAAAAGBqEZYCAAAAAAAA05KwFAAAAAAAAJiWhKUAAAAAAADAtCQsBQAAAAAAAKYlYSkAAAAAAAAwLRWGS/IxAAAAAAAAwJTU39+fnbu6urLzeKgsBQAAAAAAAKalCa8sHToS0fnaoejuKw2iEA21hWi6emZUiWkBAAAAAACAs+RMKksnLCxNIemqp/fHw88NxsDB0Z+YO6sQ936hJtrumCM0BQAAAAAAAD60SROW7nznSCzbOBBdvUPxv312Viy/YVbccHlVdu+lt4bisZcOxr/+ycG4sa4qNq2YGwsvlZgCwFTz+ONb4//9r/813njjjez6qquuir/9K78Sd9+9NLsGAAAAADiXJkVYmipKb3mkP15790h879c+Gn/3EzPzO6P9518cil//s/fi6ktmxA/vuUiFKQBMEW+99Vas+91/Fjt37sxnRlu4cGHc/4/+cVx++eX5DAAAAADAxDuTsPSsR5Sp9W6qKD1VUJqke2lNWpueGa03OpYXolBIR1sU09SbHdGSXR87Wjb2ZqtHK0bbye6d4B1t28u3imsqcy3R8WZ5DgD4oEpQ2rewL7b/n8/FE3/2H7IjjdNcupfWAAAAAABMdmc1LE1VpWmP0tR691RBaUVak9amZ9Kzo62NbcPDMTy8KhrzmVjWHj3ZXDp6omVrfRTWZFHqUb0b18ULHe1xU+uj5ZC1YntbFK7sjvuPPp+ObRHrOyLFqo3fKr+zfVl5OQDwQan1biUo/Ytv/9fo+XxvDM0ayo40TnOVwDStBQAAAACYzM5qWNr52qEYODic7VE6XmlteiY9e3rqovWxnmh/ad2IStDe6Nwa0fLF1mh6aHV05lWjWaXq+heifdeI4DXTGKseay29CQAYj7RHafL/Ld+RBaTHS3PpXlJZCwAAAAAwWZ3VsLS7r7z96Q2XV2Xn8ais7e77QGnpONRF09KIzX+Zt9x9szM2R0s0LYhoXLI2Vj9VqS3tju5NN0VDaR4AOHNvvPFGdv7rG9/OzidSuVdZCwAAAAAwWZ3lPUvLYemZKeTnM9f7l5sjljaVK0VvbYq1D3aObsVbMXLv0uXlNrwAAAAAAADA9HJWw9KG2vLrXnrrg235TqaytqH2TMLSStvdFI8W49HWLbGltb4cghYWx+rSv3UbUxTaEA3LRrTlXdAam/M9S9fmUwDA2K666qrs/LGuy7LziVTuVdYCAAAAAExWZzUsbbp6ZsydVYjHXjqYz4wtrZ1dHfH+wJ7Yd+BwPjs+xTX1sfKG+6M1tdfd3hmrH9oWw1kImh+72iO2dkZv2t/0m2tjdWPLiP1NAYDT9bd/5Vey8996bFFUHfxg2/00l+4llbUAAAAAAJPVWQ1Lq0pvu/cLNfGvf3Iw/vMvDuWzJ5fWpLXLryvEewcPx6tvDZw6MN20Muor7XNLx7premL4W43ZreJTq2PtkvL4qAVN0RKbozMFpLeuiuFdpasrjz2fqk/jm63ltr0AwJjuvntpLFy4MGp31saXHviVqH++LgtI05HGaS7dS2vSWgAAAACAyawwnEowz6KhIxG3PNIfr717JL73ax+Nv/uJmfmd0VJQ+mvfey8WXBTx4jdqo2tXX/zojXfj5qsuic9ddSA6lj8aDY+tiuPizwnWW/rufRHrN5erVQGAD3jrrbdi3e/+s9i5c2c+M1oKSu//R/84Lr/88nwGAAAAAGDi9ff3Z+eurq7sPB5ntbI0SdWlm1bMjasvmRG/+m8H4qtb3suC0b/qP5IdaZzm0r2awmDcc+P+7JnPXVWbBaUpMP3xG+kXWR2Ls+rPtiiWXz2himvSt+pj5aZ8AgA4oRSC/u6634v/9e///SwYra6uzo40TnPpnqAUAAAAAJgKznplaUWqMF319P54+LnBGDg4+hNpX9M7Pn4o6mbsjr9xSU38zzf9jVhUNy+71/H8rqwVb+vnr4x5aTNTAAAAAAAAgDGcSWXphIWlFSk07XztUHT3pc8MR0PtjGi6emb88q/3xXee2RmXfKQmvvy3LovbFs3P1qeg9MkXe2LR5fOyalMAAAAAAACAsUyKNrzHSy12l1wzM75+86zSUZON09y82TNjXs3M2Lf/UOx4a18WkiapmjQFpeV2vH3ZHAAAAAAAAMDZNuFh6clcUTs7/ub/MCdmVc+IwcNHjoalSaooTaFpCkxHzgMAAAAAAACcLectLE0+VXdRzKwqxJEjR+LVtwby2bI7P12fBabP7ng7nwEAAAAAAAA4e85rWJrsPXAoDg0Nx+69+/OZsko73t17D2jHCwAAAAAAAJx15zUsrb+4Jtu39L2DQ1m73eNb7qZ2vFdcPHvMdrxDRyKe+uWh+MMfDZaOg9k4zQEAAAAAAACcTGG4JB+fcykA/Zedv4z3B4fi8otnx9+59mOxqG5efrcsrXnyxZ6YV1Mdty26LKs4rUiB6Kqn98fDzw3GwMHRv8bcWYW49ws10XbHnKg67/WzAAAAAAAAwETq7+/Pzl1dXdl5PM5rWJo88v+8Fv/tv++Pyy+aFTdeeUnctmh+fueY1IY3VZfefNUlWbVpsvOdI7Fs40B09Q5F67WHY+miobhufrmc9Gd7ZsTWHVXR8Up13FhXFZtWzI2Fl0pMAeBsaV56dz46sS1bH89HAAAAAADnxpQMS5/8aU9sf+2dqL94Tlw6d2a0fv7K/M5oIwPTG6+sjVse6Y+d7wzFd78yGHd8fChfNdrTr1fFV39QEwsvrYof3nORClMAOAtSULp16/fzqxNbuvR/EpgCAAAAAOfUmYSl5z0+nDd7ZnauqS6ccN/SipH7l97z/b1ZRempgtIk3Utr0trUrnfKerMjWgqFKGRHWxTzaQA418YTlAIAAAAATBXnPSytv7gmjgxHvD1wMLve3XfyUPPOz9RH3UWz409fLLfePVVQWpHWpLVpX9O0x+nUU4y2KzdHy67hSEXAw8WIxWvEpQAAAAAAAPBhTYrK0rmzq2JW9YyYVTUjevYO5ndO7CNz58eBw4Vsj9LxSmsHDg5H52uH8pmkGG3LO6K4saVcsbmmGMU1hWjbnt8u6S3dq1wX17REx/YRFZ4jAssT3tvelleCFqJlY2++svzOyvy4qkTf7I4XHro/Whfk17c2xdoHO1WXAgAAAAAAwIc0CcLS6qiprorBw0Oxd//B2HdgZKD5Qd195S1Wr5s//jLRytruvuOe2bQy1sWGcsXmtxrzyZPZEivXR2xIa4d7ov2lddHxZn5r1L1tsfbBxVF4qqn83l3tEa2PlsPN7W1xX+V76ShNjlkl+mZ36e0jNUTDshei++i3AQAAAAAAgDMxKcLSK2pnx8CBobhs7uzYvfdAfudkymHpmSnk59yy9tiwoi6/GEtztK9vjfLqumi4YcuIwHLkvRRmlq5/Iw9fFzTETeVRFJ9aHVta649VljaujnipO47VnQIAAAAAAADnynkPSyvmzKrKRxH7DhzORx/UUFv+kX+2Z/w/emVtQ+1xYel5sLaYV5VWjscqIetJLGiI5nxY1h3dm26KhkpbXgAAAAAAAOCMTIqw9IqL50QhhuPIcLlqdHff/ux8Ik1Xz4y5swqxdcexcHUsae3s6uF4f2DPqYPYa5rjhe5KnWcxHm0d3QD3w2pcsjZWr+84vUrSVJn64IiWv9s7Y/VDTTFW02AAAAAAAADg1CZNZen7B4/E+4eG8quTqyr9xPd+oSY6XqmOp18fOzBNa9La5dfNiPcOHo5X3xo4aWBat+L+uOlom9zOaOgYXdP5od26KnqWbo76ShvedIy1Z2k0xqpdLbH5ynx9Y8S2MfdXBQAAAAAAAMZSGE69YM+zHb374t+/8Fcxb/bMmFdTHQ3zPxq3LZqf3/2goSMRtzzSHzvfGYrvfmUw7vj4iUPWFJR+9Qc1sfDSqvjhPRdF166++NEb78bNV10Sn7uqNl8FAJyO5qV356NT27L18XwEAAAAADDx+vv7s3NXV1d2Ho9JEZbu7jsQHc/vysZXz58bM6si7vxMfXZ9MjvfORLLNg5EV+9QtF57OJYuGorr5h/J7qU9SlPr3VRRemNdVWxaMTcWXlouov3xG5MtMC1GW2FxrM6vRlnWHj1j7WkKAAAAAAAATP2wdPDwUHz80o/GwMHD0fr5K2Pe7Op8xYmlCtNVT++Ph58bLD0z+tdI+5qmdr1td8zJWveOlL6VWvGO5xsAAAAAAADA5Ddlw9LkD/6iO/YMDMbNV9XG6/99/2kFmSk07XztUHT3pV9lOBpqZ0TT1TM/EJJWpKD0yRd7YtHl87TjBQAAAAAAgAvAmYSlJ4kTz70UjKbQ873Bcivd3X37s/N4pFB0yTUz4+s3zyodNdn4ZEFpkr6VgtLUjje15QUAAAAAAACmn8kTltZURyGGY2ZVIQsze/YO5ncmRqooTd9JgWmqNAUAAAAAAACml0lUWTozZs+sin2D5eBy34FD2Xki3fnp+iwwfXbH2/kMAAAAAAAAMF1MmrA0GRgcyqo8L5kz62hoOpEq7Xh37z2gHS8AAAAAAABMM5MmLK2/uCZmVRdi8PCRuLw0TqHpuWiPm9rxXnHx7DHb8ab9VJ/65aH4wx8Nlo6D2TjNAQAAAAAAAFPTpKosramuys7vDw5l53PltkWXHW3He3xgmgLRf/Jf9sclbX3xd/7NQPzW998vHe9l4zSX7glNAQAAAAAAYOopDJfk4/Nqd9+B+Pcv/FUcPHwkbm24NH7W0x+3fXJ+LKqbl6+YWKkNb6ouvfmqS7Jq02TnO0di2caB6OoditZrD8fSRUNx3fxyMvqzPTNi646q6HilOm6sq4pNK+bGwksnVfYMABOmeend+ejEtmx9PB8BAAAAAJwb/f392bmrqys7j8ekCUtTRWfH87ti/8HD8cVPXBY73toXV1w8J25bND9fMfFGBqY3XlkbtzzSHzvfGYrvfmUw7vj4iatdn369Kr76g5pYeGlV/PCei6JKXgrABS4FpWOFoeNZAwAAAABwNp1JWDppor3UBrfiXOxVeiIj9y+95/t7s4rSUwWlSbqX1qS1q57en89OEm92REuhEIXS0bKxN4prWqLjzfzeWTRR7wVg8hGCAgAAAAAXkklVB5kC00NDKSw9lFWVpvO5dudn6qPuotnxpy+WW++eKiitSGvS2oefG5xU+5cW/2Rl3FQcjlQ8vHlFXT4LAAAAAAAAJJOuaeycmVWxb7BcWbp774HzUmX6kbnz48DhQrZH6XiltQMHh6PztZEBbzHalndEcWNLVt1ZWFOM4ppCtG3Pb5f0lu5VrrMKze3HqkHT+rGVvlFZn47S93rT9Pa2WPxgxOrGNN8SD29oKV1viZVXlteVv9kbHctHPFv5XqpIzX/WNJ+qUset9N2j7yu0lX66itHfOvbO4/5GpWPk3wcAAAAAAAAmyuSqLK2pjuHSvxSQ1l9ck8+ee9195W1cr5s//jLRytruvuOe2bQy1sWGrLpz+FuN+eTJbImV6yM2pLXDPdH+0rpxtLdtjFXZ+vLRs3Rz3JeCyFtXxbaHItZmlaWb4977Npeum6N9V3ndqltTOHtfxPpjz26LxceCygcXR+eS8vy4q1JTyFr6Fbfl7xsuRizOw9vimvrYvLQn/1ZPtGytP/atkX+jXe3xQuPIkBUAAAAAAAAmxiRrwzszho6Ug8oZhfKPtrvvfOwDWv4ZzkwhP+eWtceGcbfAbY729a1RXl0XDTdsie5x7AWaqlMrVZn1rVvy2bEUo3NEpWk6UiXqC915xedD27JA9XT0/uXmiI6vxdFI+NavRXt0l/6lb62N+4/+Heqi9Ztrj31r5N9oQVO0LHthXL83AAAAAAAAfBiTrg3v4Tws/WhNVXY+Hxpqy3+Wn+0Z/5+nsrah9riwdIKloLT+l/fnFZvD0dPRnN8Zj7XHqkDzw96mAAAAAAAATBeTKiyttN4dPHwk9h04FPNmV0fP3sFs7lxqunpmzJ1ViK07xh/YprWzq4fj/YE9p9xnteGa5mMVlVGMR8ddCXpyzdc05KPe6Nx6qveNrFRtjKaHVse609mPdAx1X2yJaH30WAvd7Y/Gymgo/Tv+W73RsX513NRwgmA2e6Ylmhbk1wAAAAAAADBBJl1laQpIK664eE4Wmp5rVaW/yr1fqImOV6rj6dfHDkzTmrR2+XUz4r2Dh+PVtwZOGpjWrbg/bmqtz1vfdkbDaVWCftDo990X3Tec/H2NS9bG6sZyy920X2jjt8p7h1ba8Fbmz9iC1tic9imtvC/tX/pYua3w6G+V9y892uZ308qoP8EzAAAAAAAAMJEKw6n36iSxu+9APPliT6ROvJ+qm5fN7XhrX/zmlyqVk+fO0JGIWx7pj53vDMV3vzIYd3x8KL8zWgpKv/qDmlh4aVX88J6LomtXX/zojXfj5qsuic9dVZuv4uSK0ba8O74mIAWYMpqX3p2PTm3L1sfzEQAAAADAxOvv78/OXV1d2Xk8JlVYmqoxO57fFfsPHo4br7wka8v77Kt7ovXzV46qOD1Xdr5zJJZtHIiu3qFovfZwLF00FNfNP5LdS3uUpta7qaL0xrqq2LRibiy8tFyo++M3zm5gWlxTiMUP5hejNEf7rs3ROsEtayf2+8JSAAAAAAAAPrwpH5Ymf/AX3VEonesvnh2fu+qSrNL0tk/Oj0V5pem5lipMVz29Px5+bjAGDo7+U6V9TVO73rY75mSte0dKoW8Kf89X0AsAAAAAAADTyQURlpYrS4/EnFkzsqAxhafnMyytSKFp52uHorsv/bmGo6F2RjRdPfMDIWlFCkpT0Lvo8nna8QIAAAAAAMAEO5Ow9CRR3/mXwsZ0pKrMnr2D+ez5k0LRJdfMjK/fPKt01GTjkwWlSfq5U1Ca2vGmtrwAAAAAAADA5DLpwtJ5NdVx5Eh5X9AkXe87cCi/mlpSRWkKTVNgmoJfAAAAAAAAYPKYlJWls2dWZedyZenM2L33QHY9Fd356fosMH12x9v5DAAAAAAAADAZTL7K0tkzY+BguQozVZTWX1yTj6dmZWalHW8KfLXjBQAAAAAAgMljUlaWzigU8lE5PE129+3PzlNRasd7xcWzx2zHO3Qk4qlfHoo//NFg6TiYjdMcAAAAAAAAcPZNurC0Ukk6q2pG9OwdjCtqZ2fXU91tiy472o73+MA0BaL/5L/sj0va+uLv/JuB+K3vv1863svGaS7dE5oCAAAAAADA2VUYLsnHk8KO3n3x7Kt7srC0Yf5H47ZF86Pj+V1xxcVzsvFUltrwpurSm6+6JKs2TXa+cySWbRyIrt6h+LVPH467rh2KT32snIz+/K9nxBOvVMWfvVgdN9ZVxaYVc2PhpZOyGBiAaaZ56d356MS2bH08HwEAAAAAnBv9/f3ZuaurKzuPx6QLS3f3HYgnX+yJj8ysitqPzIw7P1Mfz+7Yk+1fmsZT3cjA9MYra+OWR/pj57tD8ftLB6Np4VC+arTOnVXxW1trYuElVfHDey6KKnkpAOdRCkrHCkPHswYAAAAA4Gw6k7B00sZuad/SfYPH2tXu3nvglPt9ThUj9y+95/t7s4rSUwWlSbqX1qS1q54+H3u3FqNteUf05ldJcU1LdLyZX4z0Zke0FNpKT5yJD35n3NJ315zZVwEYPyEoAAAAAHAhmXRhadrXs6ISjlb2Mb1QpArZuotmx5++WG69e6qgtCKtSWsffm5wcu9fuqA1Ng+visb8EgAAAAAAACarSRuWfrSmKjunwPSK2jnZeHff+aiqnBgfmTs/DhwuZHuUjldaO3BwODpfO5TPJOVqzOLGligUClFYU4zimkK0bc9vl/SW7lWus4rQ7an6s7Q2X39qvdGxfHGs3rQy6rNnRlSNZlWkx79nZHVoaVy5P2rNOIx893HPpt/n6HwhVbiWvnPlytjy4OLy3JlWpwIAAAAAADCtTMo2vCkwfW/wWIiYrtPRs3cwn5n6uvvKW8V+6mPjLxOtrO3uO+6ZTStjXWyItP3s8LfGquncEivXR2xIa4d7ov2ldSdup3tUXbQ+ti3WLmuPnuyZStXo2O8prllc+p90Pz/G/NlGyCpUjz27LRaXA983O+K+rS35z5KOzdG6oDFW7WqP5oe2leceay391AAAAAAAAHBqk3bP0jmzypWllWrSeTXVse/AyIrKqa4clp6ZQn7OLWuPDSvGGw82R/v6SphYFw03bInuU4alJzP2exqXrI3VjYVo2XhmdZ6pQrZSQbr4wXxyQVO0RKpyPdN9UQEAAAAAAKBsclaW1lTH0JHR1ZPzZs+M3XsPHN3HdKprqC3/6X/+1+P/T1BZ21B7XFg6Wd26Kqv03BD3nXZ73BSUrrumJ68eHY5tD+U3IlW6prmm6MyD1JEthwEAAAAAAGC8JmdYOntmHDpSrrwcyNvx1l9ck50vFE1Xz4y5swrxxCvlCtrxSGvTM+nZU2m4pjle6K7EksV4tHVLPv4QNnVHdz48XXUrNsfw8LZYe5rvuKmhUi1bjM5KZelRjbFqeDh6Okb8ri9126sUAAAAAACAcZuUYWmSKkjTPqWVStIUoCaVtrxTXVXpL3/vF2riz16sjs6dYwemaU1am55Jz55K3Yr746bW+ryFbWc0dDTnd85UYzQ9tDoWZ+8bf/vbkW10C4W0f2llv9OxNf5Ge7zQWHm2M6JSWfpmR7QcfWch6re2lFsQH23PW5o/jQpWAAAAAAAApq/CcOpxOsn8+I2++NEb78YVF8/Oru/8TH127nh+V2luTty2aH52PdUNHYm45ZH+2PnuUPz+0sFoWliuoj1eCkp/a2tNLLykKn54z0VjhqUAMJGal96dj05ty9bH8xEAAAAAwMTr7+/Pzl1dXdl5PCZlWLqjd188++qe+JuXfCQOHzlyNCx9dsee2Hfg0NHrC8HOd47Eso0D0dU7FL/26cNx17VD8amPlfdrTXuUpta7qaL0xrqq2LRibiy8dGKS0lQFuvgDrW6T5mjftTlaF+SXH9K5+g4AAAAAAADTywUZlv63d9+P3/xSw6j51s9fmbXovVCkCtNVT++Ph58bjIGDo/9zpD1KU+vdtjvmqCgFAAAAAACAk7hgwtLdfQfiyRd74rr6i+JnPf1Hw9HK/G2fnB+L6ublqy8cKTTtfO1QdPel/yTD0VA7I5qunikkBQAAAAAAgDGcSVg6qWO49w4eykdlV9TOzkLTnr2D+cyFJYWiS66ZGV+/eVbpqMnGglIAAAAAAACYGJMyiqu02P3orJnZed+Bw9k5ueLiObHjrX2j5gAAAAAAAABO16QOSyv9gfcdOFZh+snL52ZnYSkAAAAAAADwYUzaJq8pMB06Uo5LBwaHsnNSacX76lsD+QwAAAAAAADA6Zv0O2KmYPT4KtLUinf33v1H54eORDz1y0Pxhz8aLB0Hs3GaAwAAAAAAADiZwnBJPp5UnvxpT3beN3g45tVUx52fqc+ukx29++LZV/fEF6+ZH//25ep4+LnBGDg4+teYO6sQ936hJtrumBNVkz4SBgAAAAAAAD6M/v7+7NzV1ZWdx2PShqXP7tiT7VU6b/bM7DwyLE3+72f+Kja8MDte65sRrdcejqWLhuK6+eVy0p/tmRFbd1RFxyvVcWNdVWxaMTcWXioxBYCzpXnp3fnoxLZsfTwfAQAAAACcGxdcWJpa7aaWuzve2he/+aWG/E657e71/+Ld+KuB4fiTrxyMOz5+bE/TkZ5+vSq++oOaWHhpVfzwnotUmALAWZCC0s/c+Nn86sR+2vUTgSkAAAAAcE6dSVg6qePDtCdp/cU1R8cVq57eHzveiVMGpUm6992vDEZX71D2zNTWGx3L26KYXwHA+TCeoBQAAAAAYKqYtGFpJSR97+DoMDRVlaY9SlPr3VMFpRVpTVqbnknPTkW9G1uiUKiPlZvyCQAAAAAAAOBDm/SNaefVzMzOlcrSztcOxcDB4WyP0vFKa9Mz6dljitG2vCOKWRBZiMKaYhTXFKJte367JIWUlevimpbo2N4RLWltvr7ihPe2t5XHpaNlY2++shJ85usK46sUrVuxOYaHe6J9WT4BAAAAAAAAfGiTNiydN7scklbsO1AOOrv7ylusXjd//GWilbXdfcc9s2llrIsNkbZtHf5WYz55Mlti5fqIDWltCi5fWhcdb+a3Rt3bFmsfXByFp5rK793VHtH6aDkU3d4W91W+l47S5OIRoSsAAAAAAABw7kz6ytKP1lRl54HBSiVpOSw9M4X8nFvWHhtW1OUXY2mO9vWtUV5dFw03bInuo2HpyHsN0bCsdP0befi6oCFuKo+i+NTq2NJaf6yytHF1xEvdcazuFAAAAAAAADhXJnFlaXV2ThWlaVxpw9tQW/6Rf7Zn/D96ZW1D7XFh6XmwtphXlVaOxyohKwAAAAAAAHAuTfqwNJlXk8LSchvepqtnxtxZhdi6o1xxOh5p7ezq4Xh/YM/R0PVEGq5pjhe6K3WexXi0dUs+Pjsal6yN1es7VJICAAAAAADAJDBpw9KK1H437V+6b7AcclaVfuJ7v1ATHa9Ux9Ovjx2YpjVp7fLrZsR7Bw/Hq28NnDQwrVtxf9x0tE1uZzR0NOd3zpJbV0XP0s1RX2nDm45x7Fnau7GltLY+Vm5aHYvTM8sFrgAAAAAAAPBhFYZTL9hJquP5XXHFxXOy8Y639sVvfqkhGw8dibjlkf7Y+c5QfPcrg3HHxyv7mY6WgtKv/qAmFl5aFT+856Lo2tUXP3rj3bj5qkvic1fV5qsAgNPRvPTufHRqW7Y+no8AAAAAACZef39/du7q6srO4zElwtL6i2vi2Vf3ROvnrzzannfnO0di2caB6OoditZrD8fSRUNx3fwj2b20R2lqvZsqSm+sq4pNK+bGwkvLRbQ/fmOyBabFaCssjtX51SjL2qPHnqYAAAAAAAAwpgsuLH3ypz3Z+XNXXRJPvtgTd366Pq6onZ3NJanCdNXT++Ph5wZj4ODoXyPta5ra9bbdMSdr3TtSCmFTK96R4SsAAAAAAAAwdV1wYemzO/bE7r37s5A0BZy3fXJ+LKqbl989JoWmna8diu6+9KsMR0PtjGi6euYHQtKKFJSm8HXR5fO04wUAAAAAAIALwJmEpSeJEyePFGyOVf2ZQtEl18yMr988q3TUZOOTBaVJel8KSlM73tSWFwAAAAAAAJh+JnVYOjIkTeOevYP51YeXKkrTO1NgmgJZAAAAAAAAYHqZ1GHp3Jqq7JxVl9ZUl86HsuuzJbX3TYHpszvezmcAAAAAAACA6WLSt+GtmDd7ZuwbPLsVoJV2vLv3HhizHW+xWIw/+qM/im9/+9vZkcZpDgAAAAAAAJiaCsMl+XjS2d13IJ58sSerAO3ZeyBrmdv6+SuzkPNsevKnPVlgeqJ3P/HEE/G9730v3n77xNWnl112Wfz6r/963HXXXfkMAAAAAAAAcK719/dn566uruw8HlOisjS136205J0Ity267Gg73pH7l6YK0u985zsnDUqTdC+tSWsBAAAAAACAqWNSV5am4LLj+V1x2yfnZ214K1WmV9TOzlecPakNb6pcvfmqS+JzV9Vm4eczzzyT3x2f22+/PR544IH8CgAuXM1L785HJ7Zl6+P5CAAAAADg3DiTytJJHZYmf/AX3UcDzDROwemiunn53bOrEpgeeu35+H77H+ezZdXVVbHky7fHJz6xMLv+xS92xlN//kwcPjyUXVd84xvf0JIXgAtaCkrHCkPHswYAAAAA4Gy6INvwpva4lda4adyzdzAbT4QUyF5x8ex46snN+UzZJ665Ov7F+n8aX/vq34svfbExO9I4zaV7I6X9TSeNNzuipVCIQulo2dgbxTUt0fFmfu8smqj3AjD5CEEBAAAAgAvJlNiztGJeTQpOD+VXE2P++6/H+/3v5lflitJ/+A/uicsvvyyfOSbNpXtpTUXaw7RYLOZX51fxT1bGTcXhSMXDm1fU5bMAAAAAAABAMvkrS0cEpGnf0n2D5SrTifLyyy/no7LUevdEQWlFupfWjHTsHcVoW94RxY0tWXVnYU0ximsK0bY9v13SW7pXuc4qNLcfqwZN68dW+kZlfTpK3+tN09vbYvGDEasb03xLPLyhpXS9JVZeWV5X/mZvdCwf8Wzle6kiNf9Z03yqSh230nePvq/QVvrpKkZ/69g7j/sblY6Rfx8AAAAAAACYKFOgDe/MfBRRf3FN1pK30pZ3IqTK0JEqe5SeyvFrRr1j08pYFxuy6s7hbzXmkyezJVauj9iQ1g73RPtL68bR3rYxVmXry0fP0s1xXwoib10V2x6KWJtVlm6Oe+/bXLpujvZd5XWrbk3h7H0R6489uy0WHwsqH1wcnUvK8+OuSk0ha+lX3Ja/b7gYsTgPb4tr6mPz0p78Wz3RsrX+2LdG/o12tccLjSNDVgAAAAAAAJgYU6IN70RXk06oZe2xYdwtcJujfX1rlFfXRcMNW6J7HHuBpurUSlVmfeuWfHYsxegcUWmajlSJ+kJ3XvH50LYsUD0dvX+5OaLja3E0Er71a9Ee3aV/6Vtr4/6jf4e6aP3m2mPfGvk3WtAULcteGNfvDQAAAAAAAB/GFKgsTW14y2Fppcp0d9/+7DwRLrtsdMvdX/xiZz46uePXHP+OiZSC0vpf3p9XbA5HT0dzfmc81h6rAs0Pe5sCAAAAAAAwXUz6sHRuTVV2ToHpFbWzs/C0Z+9gNjcRrr/++nxU9tSfPxNvvTW6Ne9I6V5aM9Lx7xip4ZrmYxWVUYxHx10JenLN1zTko97o3Hqq942sVG2MpodWx7rT2Y90DHVfbIloffRYC93tj8bKaCj9O/5bvdGxfnXc1HCCYDZ7piWaFuTXAAAAAAAAMEGmRBvekebVpErTQ/nV2dfY2DiqMvTw4aH45//ykRMGpmku3UtrKtKz6R0nU7fi/riptT5vfdsZDadVCfpBo993X3TfcPL3NS5ZG6sbyy13036hjd8q7x1aacNbmT9jC1pjc9qntPK+tH/pY+W2wqO/Vd6/9Gib300ro/4EzwAAAAAAAMBEKgyn3quT2O6+A/Hkiz1x56frs8rSZ3fsiR1v7Yvf/FKlmvLse+KJJ+I73/lOflVWXV0VS758e3ziEwuz69R6N1WUjgxKk2984xtx11135VeMrRhty7vjawJSgCmjeend+ejUtmx9PB8BAAAAAEy8/v7+7NzV1ZWdx2PSh6Wp/W7H87vitk/Oj0V182JH77549tU90fr5K7OWvBPl29/+djzzzOj2umO5/fbb44EHHsivzp7imkIsfjC/GKU52ndtjtYJblk7sd8XlgIAAAAAAPDhXZBhafIHf9F9NCytVJpWrifS6QSmExWUAgAAAAAAAGM7k7B0yuxZOjBYbnebWvGmitKevYPZ9URK4WdqqztyD9PjpXtpjaAUAAAAAAAAppYpUVma2vBecfGcuG3R/Oz6yZ/2ZOc7P1Ofnc+FYrEYL7/8crz99tvZdQpJr7/++mhsbMyuAQAAAAAAgPPngm3Dm8LSeTXVR8PRH7/RFz96490J37cUAAAAAAAAmBou2Da8KSgdqf7i2dl534HD2RkAAAAAAADgdE2NsHT2zNg3eCwYrexb+upbA/kMAAAAAAAAwOmZEmFpcnwVadrDdN+BQ9l46EjEU788FH/4o8HScTAbpzkAAAAAAACAk5kSe5bu6N0Xz766Z9QepWmuc8ee+MV7H4s//vGhGDg4+teYO6sQ936hJtrumBNVUyYSBgAAAAAAAM7EmexZOmXD0p3vHIklj74br/fPiNZrD8fSRUNx3fxyOenP9syIrTuqouOV6rixrio2rZgbCy+VmALA2dK89O58dGJbtj6ejwAAAAAAzo0LNizd3XcgnnyxJ+78dH22X2lqsXvLI/2x852h+O5XBuOOjw/lK0d7+vWq+OoPamLhpVXxw3suUmEKAGdBCko/c+Nn86sT+2nXTwSmAAAAAMA5dSZh6ZSKDyt7lK56en909Z46KE3SvbQmrU3PTFXFNYUoFCpHWxTzeQA418YTlAIAAAAATBVTIixN1aQVqar04ecGs9a7pwpKK9KatDY9k56deorRGdsiFQCno6fjhVi8RlwKAAAAAAAAH9aUqSxNe5X27B2MztcOxcDB4WyP0vFKa9Mz6dljitG2vCOKG1vKFZtrilkFZ9v2/HZJb+le5bq4piU6tndES6XCc0RgecJ729vyStBCtGzszVeW31mZH1+VaGOs+lZjPo6o+2JLNOdjAAAAAAAA4MxNuV08u/vKW6xeN3/8ZaKVtd19xz2zaWWsiw3lqs0RgeSJbYmV6yM2ZBWePdH+0rroeDO/Neretlj74OIoPNVUfu+u9ojWR8uh6Pa2uK/yvXSUJk+3SrT4JyvjpiVj/awAAAAAAADAWKZOZWlNdb5naTksPTOF/Jxb1h4bVtTlF2Npjvb1rVFeXRcNN2yJ7qNh6ch7DdGwrHT9G3mguaAhbiqPovjU6tjSWn+ssrRxdcRL3XGs7vTUUlXq4tgWq27NJwAAAAAAAIAzNoXa8M7Mzg215R/5Z3vG/6NX1jbUHheWngdri3lVaeV4rBKynlpqEZxVpY5ZAQsAAAAAAACMx5QJS5Pdew9E09UzY+6sQmzdUZXPji2tnV09HO8P7Il9Bw7nsx/UcE1zvNBdqfMsxqOtW/Lx2dG4ZG2sXt8x7krSst7oWF6IziXDsXncVbAAAAAAAADAWKZQZWl1dn7/4OG49ws10fFKdTz9+tiBaVqT1i6/bka8V3r21bcGThqY1q24P2462ia3Mxo6mvM7Z8mtq6Jn6eaor7ThTcdYe5a+2RmbN0WsbhzxTKFlxH6pAAAAAAAAwJkoDKdesFPAjt598eyre6L181fGR2ZVxy2P9MfOd4biu18ZjDs+PpSvGi0FpV/9QU0svLQqfnjPRdG1qy9+9Ma7cfNVl8TnrqrNVwEAp6N56d356NS2bH08HwEAAAAATLz+/v7s3NXVlZ3HY8qEpbv7DsSTL/bEnZ+ujytqZ8fOd47Eso0D0dU7FK3XHo6li4biuvlHsrVpj9LUejdVlN5YVxWbVsyNhZeWi2h//MZkC0yL0VZYHKvzq1GWtUfPOPc0BQAAAAAAgOlsWoSlt31yfiyqm5fNDR2JWPX0/nj4ucEYODj610j7mqZ2vW13zImq45oNdzy/K2vFm6pUK+19AQAAAAAAgKnrgg5Lkz/4i+5RYWlFCk07XzsU3X3pVxmOhtoZ0XT1zA+EpBUpKE3B66LL52nHCwAAAAAAABeAMwlLTxInTk6pCrRn72B+dUwKRZdcMzO+fvOs0lGTjU8WlCbpPSkoTe14U1teAAAAAAAAYPqZUmHp2ZQqSlNomgLTVGkKAAAAAAAATC9Tq7K0pjr2HTiUX314d366PgtMn93xdj4DAAAAAAAATBdTas/SZ3fsid1790fr56/MZz681IY3VZfefNUlp9y/tFgsxssvvxxvv10OVi+77LK4/vrro7GxMbsGAAAAAAAAzp8z2bN0SoWllWAzhaWpIvRsefKnPbF774ETvveJJ56I733ve0dD0uOl0PTXf/3X46677spnAAAAAAAAgHPtTMLSKdWGd25NVT46u25bdNnRdrwj9y/99re/Hd/5zndOGpQm6V5ak9YCAAAAAAAAU8eUqizd3XcgnnyxJ9tr9Ira2fns2XF8O94Ufj7zzDP53fG5/fbb44EHHsivAODC1bz07nx0Ylu2Pp6PAAAAAADOjQu+DW+q+ux4flfc9sn5sahuXj579lQC00OvPR/fb//jfLasuroqlnz59vjEJxZm17/4xc546s+ficOHh7Lrim984xta8gJwQUtB6Vhh6HjWAAAAAACcTRd8G97UKjcdPXsH85mzK1WUXnHx7Hjqyc35TNknrrk6/sX6fxpf++rfiy99sTE70jjNpXsjpf1NJ403O6KlUIhC6WjZ2BvFNS3R8WZ+7yyaqPcCMPkIQQEAAACAC8mUCkvPhfnvvx7v97+bX5UrSv/hP7gnLr/8snzmmDSX7qU1FWkP02KxmF+dX8U/WRk3FYcjFQ9vXlGXzwIAAAAAAADJlAtLr7h4Tuw7cCi/OvtefvnlfFSWWu+eKCitSPfSmpGOvaMYbcs7orixJavuLKwpRnFNIdq257dLekv3KtdZheb2Y9Wgaf3YSt+orE9H6Xu9aXp7Wyx+MGJ1Y5pviYc3tJSut8TKK8vryt/sjY7lI56tfC9VpOY/a5pPVanjVvru0fcV2ko/XcXobx1753F/o9Ix8u8DAAAAAAAAE2VKVpbu3nsgH519qTJ0pMoepady/JpR79i0MtbFhqy6c/hbjfnkyWyJlesjNqS1wz3R/tK6cbS3bYxV2fry0bN0c9yXgshbV8W2hyLWZpWlm+Pe+zaXrpujfVd53apbUzh7X8T6Y89ui8XHgsoHF0fnkvL8uKtSU8ha+hW35e8bLkYszsPb4pr62Ly0J/9WT7RsrT/2rZF/o13t8ULjyJAVAAAAAAAAJsaUC0vrL67JzvsOHM7Ok96y9tgw7ha4zdG+vjXKq+ui4YYt0T2OvUBTdWqlKrO+dUs+O5ZidI6oNE1HqkR9oTuv+HxoWxaono7ev9wc0fG1OBoJ3/q1aI/u0r/0rbVx/9G/Q120fnPtsW+N/BstaIqWZS+M6/cGAAAAAACAD2PKhaXzZs/MzhMVll522eiWu7/4xc58dHLHrzn+HRMpBaX1v7w/r9gcjp6O5vzOeKw9VgWaH/Y2BQAAAAAAYLqYenuW1s7OzhO1b+n111+fj8qe+vNn4q23RrfmHSndS2tGOv4dIzVc03ysojKK8ei4K0FPrvmahnzUG51bT/W+kZWqjdH00OpYdzr7kY6h7ostEa2PHmuhu/3RWBkNpX/Hf6s3OtavjpsaThDMZs+0RNOC/BoAAAAAAAAmyJTcs3Te7Oro2TuYX51djY2NoypDDx8ein/+Lx85YWCa5tK9tKYiPZvecTJ1K+6Pm1rr89a3ndFwWpWgHzT6ffdF9w0nf1/jkrWxurHccjftF9r4rfLeoZU2vJX5M7agNTanfUor70v7lz5Wbis8+lvl/UuPtvndtDLqT/AMAAAAAAAATKTCcOq9OsU8+dOe7HznZ+qz89n2xBNPxHe+8538qqy6uiqWfPn2+MQnFmbXqfVuqigdGZQm3/jGN+Kuu+7KrxhbMdqWd8fXBKQAU0bz0rvz0alt2fp4PgIAAAAAmHj9/f3ZuaurKzuPx5QMS5/dsSd2vLUvfvNLlfazZ9+3v/3teOaZ0e11x3L77bfHAw88kF+dPcU1hVj8YH4xSnO079ocrRPcsnZivy8sBQAAAAAA4MObNmHpjt598eyre6L181dmLXknyukEphMVlAIAAAAAAABjO5OwdIruWTozO+/u25+dJ0oKP1Nb3ZF7mB4v3UtrBKUAAAAAAAAwtUzJytKk4/ldsejyefG5q2rzmYlVLBbj5Zdfjrfffju7TiHp9ddfH42Njdk1AAAAAAAAcP5Mmza8yZM/7ckqTG9bND+fAQAAAAAAAKaradOGN7midk7seGtffgUAAAAAAABweqZsWFp/8ezsvO/A4ewMAAAAAAAAcDqmcGXp7Jg3uzp29+2PoSMRT/3yUPzhjwZLx8FsnOYAAAAAAAAATmbK7lmadP58T/zxT2fEf/jFjBg4OPrXmDurEPd+oSba7pgTVVM2EgYAAAAAAADG40z2LJ2yYenOd47EXf9ub/x8T0TrtYdj6aKhuG5+uZz0Z3tmxNYdVdHxSnXcWFcVm1bMjYWXSkwB4GxpXnp3PjqxLVsfz0cAAAAAAOfGtAlLU4vdWx7pj53vDMV3vzIYd3x8KL8z2tOvV8VXf1ATCy+tih/ec5EKUwA4C1JQ+pkbP5tfndhPu34iMAUAAAAAzqkzCUunZHy46un90dV76qA0SffSmrQ2PTNevRtbom17fjGlFKNteUf05ldJcU1LdLyZX4z0Zke0FNpKTwDA+I0nKAUAAAAAmCqmXFiaqkoffm4wa717qqC0Iq1Ja9Mz6VlyC1pj8/CqaMwvAQAAAAAAYLqZcmFp52uHYuDgcLZH6XiltemZ9OwxxWgrFKJQOY6ryKxIVaZH1xSOVWmOmj/Js6OVqz6LlefWFKO4pjCqgnVkRWtWEbo9VX/m3yitP7Xe6Fi+OFZvWhn12TMjqkazKtLj3zOyCvW4v8WY3wIAAAAAAICpb8qFpd195S1Wr5s//jLRytruvpHPNMaq4eFIW7amo2fp5rhv43GR55sdcd/Wlug5um5ztC4ozW9vi/oR8+nZ+vEEjJtWxrrYUH7Xt8aq6dwSK9dHbMi+0RPtL607cTvdo+qi9bFtsXZZe/5zVapGx35Pcc3i0v+Uf5fx/WwAAAAAAAAw9U3BPUvLYemZKeTnspHVofWtW/LZERY0RUukSs3Re3sWn1oda7/ZGnX5dd2K+2PtS91jV5cua48NKypPjaU52tdXvlEXDTdsie5ThqUnM/Z7GpesjdWNhWg5PiwGAAAAAACAC9iUC0sbass/8s/2jP9Hr6xtqD0WlqagtP6X9x+tpuzpaM7vjJSqNdP9pujMQ9WRbXMvGLeuyv4GG+K+cng8rrbCAAAAAAAAMLVNubC06eqZMXdWIbbuqMpnxpbWzq4ejvcH9sS+A4fz2YjmaxryUW90bj1BZelR5Za9KVB9obu3XIm5/lig2LtxXay+oSGv3hy/hmvK7ysrxqMnqm49XZu6ozsfnq66FZtjeHhbrP0Q7wAAAAAAAICpYsqFpVWln/jeL9RExyvV8fTrYwemaU1au/y6GfHewcPx6lsDWWCaWufe1Fqft+G9L7pvOEFl6Zsd0ZJXlGatere2lNvo3rqqvE/piPmeM9jnc/TP0BkNJ6xuPR2N0fTQ6licvW906+BTKa459jsWCmn/0sp+pwAAAAAAAHDhKgyn/qtTzNCRiFse6Y+d7wzFd78yGHd8fCi/M1oKSr/6g5pYeGlV/PCei6JrV1/86I134+arLonPXVWbrwIATkfz0rvz0alt2fp4PgIAAAAAmHj9/f3ZuaurKzuPx5QMS5Od7xyJZRsHoqt3KFqvPRxLFw3FdfOPZPfSHqWp9W6qKL2xrio2rZgbCy8tF9H++I2JC0xThebiB/OLUZqjfdfmaF2QX34I5+IbAAAAAAAAMNVMq7A0SRWmq57eHw8/NxgDB0f/Gmlf09Sut+2OOVnr3pE6nt+VteJt/fyVMW92dT4LAAAAAAAATFXTLiytSKFp52uHorsv/SrD0VA7I5qunvmBkLQiBaVPvtgTiy6fpx0vAAAAAAAAXACmbVh6JiayHS8AAAAAAABwbp1JWHqS2ssLXwpIUwveFJimSlMAAAAAAABgepm2YWly56frs8D02R1v5zMAAAAAAADAdDGtw9IUlKZ9S3fvPZC15QUAAAAAAACmj2kdliapHe8VF88esx3v0JGIp355KP7wR4Ol42A2TnMAAAAAAADA1FQYLsnH01YKSZ98sSfm1VTHbYsuyypOK1Iguurp/fHwc4MxcHD0n2rurELc+4WaaLtjTlRN+9gZAAAAAAAAzp/+/v7s3NXVlZ3HQ1iaS214U3XpzVddklWbJjvfORLLNg5EV+9Q/NqnD8dd1w7Fpz5WLif9+V/PiCdeqYo/e7E6bqyrik0r5sbCSyWmAEwPzUvvzkcntmXr4/kIAAAAAODcEJZ+SCMD0xuvrI1bHumPne8Oxe8vHYymhUP5qtE6d1bFb22tiYWXVMUP77lIhSkAF7wUlI4Vho5nDQAAAADA2XQmYalob4SR+5fe8/29WUXpqYLSJN1La9La1K733CtG2/KO6M2vkuKaluh4M78Y6c2OaCm0lZ44Ex/8zril7645s68CMLkIQQEAAACAC4mw9Dh3fqY+6i6aHX/6Yrn17qmC0oq0Jq1N+5qmPU4nrQWtsXl4VTTmlwAAAAAAADCdCUtP4CNz58eBw4Vsj9LxSmsHDg5H52uH8pmkXI1Z3NgShUIhCmuKUVxTiLbt+e2S3tK9ynVWEbo9VX+W1ubrT603OpYvjtWbVkZ99syIqtGsivT494ysDi2NK/dHrRmHke8+7tn0+xydL6QK19J3rlwZWx5cXJ470+pUAAAAAAAAOMuEpSfQ3VfexvVTHxt/mWhlbXffcc9sWhnrYkOkrWGHvzVWTeeWWLk+YkNaO9wT7S+tO3E73aPqovWxbbF2WXv0ZM9UqkbHfk9xzeLS/6T7+THmzzZCVqF67Nltsbgc+L7ZEfdtbcl/lnRsjtYFjbFqV3s0P7StPPdYa+mnBgAAAAAAgPNPWHpC5bD0zBTyc25Ze2xYMd54sDna11fCxLpouGFLdJ8yLD2Zsd/TuGRtrG4sRMvGM6vzTBWylQrSxQ/mkwuaoiVSleuZ7osKAAAAAAAA546w9AQaast/lp//9fj/PJW1DbXHhaWT1a2rskrPDXHfabfHTUHpumt68urR4dj2UH4jUqVrmmuKzjxIHdlyGAAAAAAAACYTYekJNF09M+bOKsQTr1TlM2NLa9Mz6dlTabimOV7orsSSxXi0dUs+/hA2dUd3PjxddSs2x/Dwtlh7mu+4qaFSLVuMzkpl6VGNsWp4OHo6RvyuL3XbqxQAAAAAAIBJRVh6AlWlv8q9X6iJP3uxOjp3jh2YpjVpbXomPXsqdSvuj5ta6/MWtp3R0NGc3zlTjdH00OpYnL1v/O1vR7bRLRTS/qWV/U7H1vgb7fFCY+XZzohKZembHdFy9J2FqN/aUm5BfLQ9b2n+NCpYAQAAAAAAYCIVhlMfVT5g6EjELY/0x853h+L3lw5G08Kh/M5oKSj9ra01sfCSqvjhPReNGZYCwFTXvPTufHRqW7Y+no8AAAAAACZef39/du7q6srO4yEsPYWd7xyJZRsHoqt3KH7t04fjrmuH4lMfO5LdS3uUpta7qaL0xrqq2LRibiy8dGKS0lQFuvgDrW6T5mjftTlaF+SXH9K5+g4AAAAAAACcbcLSCZAqTFc9vT8efm4wBg6O/lOlPUpT6922O+aoKAUAAAAAAIDzSFg6gVJo2vnaoejuS3+u4WionRFNV88UkgIAAAAAAMAkICwFAAAAAAAApqUzCUvVRQIAAAAAAADTkrAUAAAAAAAAmJaEpQAAAAAAAMC0JCwFAAAAAAAApiVhKQAAAAAAADAtCUsBAAAAAACAaUlYCgAAAAAAAExLwlIAAAAAAABgWhKWAgAAAAAAANOSsBQAAAAAAACYloSlAAAAAAAAwLQkLAUAAAAAAACmJWEpAAAAAAAAMC0JSwEAAAAAAIBpSVgKAAAAAAAATEvCUgAAAAAAAGBaEpYCAAAAAAAA05KwFAAAAAAAAJiWhKUAAAAAAADAtCQsBQAAAAAAAKYlYSkAAAAAAAAwLQlLAQAAAAAAgGlJWAoAAAAAAABMS8JSAAAAAAAAYFoSlgIAAAAAAADTkrAUAAAAAAAAmJaEpQAAAAAAAMC0JCwFAAAAAAAApiVhKQAAAAAAADAtCUsBAAAAAACAaUlYCgAAAAAAAExLwlIAAAAAAABgWhKWAgAAAAAAANOSsBQAAAAAAACYloSlAAAAAAAAwLQkLAUAAAAAAACmJWEpAAAAAAAAMC0JSwEAAAAAAIBpSVgKAAAAAAAATEvCUgAAAAAAAGBaEpYCAAAAAAAA05KwFAAAAAAAAJiWhKUAAAAAAADAtCQsBQAAAAAAAKYlYSkAAAAAAAAwLQlLAQAAAAAAgGlJWAoAAAAAAABMS8JSAAAAAAAAYFoSlgIAAAAAAADTkrAUAAAAAAAAmJaEpQAAAAAAAMC0JCwFAAAAAAAApiVhKQAAAAAAADAtCUsBAAAAAACAaUlYCgAAAAAAAExLwlIAAAAAAABgWhKWAgAAAAAAANOSsBQAAAAAAACYloSlAAAAAAAAwLQkLAUAAAAAAACmJWEpAAAAAAAAMC0JSwEAAAAAAIBpSVgKAAAAAAAATEvCUgAAAAAAAGBaEpYCAAAAAAAA05KwFAAAAAAAAJiWhKUAAAAAAADANBTx/wNscgNj4sHQhgAAAABJRU5ErkJggg==;" vertex="1" parent="1">
                    <mxGeometry x="50" y="160" width="1867" height="713" as="geometry"/>
                </mxCell>
                <mxCell id="3" value="" style="rounded=0;whiteSpace=wrap;html=1;fillColor=none;fontColor=#ffffff;strokeColor=#FF0000;strokeWidth=2;" vertex="1" parent="1">
                    <mxGeometry x="50" y="310" width="110" height="40" as="geometry"/>
                </mxCell>
                <mxCell id="4" value="1" style="ellipse;whiteSpace=wrap;html=1;aspect=fixed;strokeColor=#FF0000;strokeWidth=2;fillColor=#FFFFFF;fontColor=#000000;fontSize=25;" vertex="1" parent="1">
                    <mxGeometry x="50" y="285" width="35" height="35" as="geometry"/>
                </mxCell>
                <mxCell id="6" value="" style="rounded=0;whiteSpace=wrap;html=1;fillColor=none;fontColor=#ffffff;strokeColor=#FF0000;strokeWidth=2;" vertex="1" parent="1">
                    <mxGeometry x="160" y="310" width="270" height="40" as="geometry"/>
                </mxCell>
                <mxCell id="8" value="2" style="ellipse;whiteSpace=wrap;html=1;aspect=fixed;strokeColor=#FF0000;strokeWidth=2;fillColor=#FFFFFF;fontColor=#000000;fontSize=25;" vertex="1" parent="1">
                    <mxGeometry x="160" y="285" width="35" height="35" as="geometry"/>
                </mxCell>
                <mxCell id="10" value="" style="rounded=0;whiteSpace=wrap;html=1;fillColor=none;fontColor=#ffffff;strokeColor=#FF0000;strokeWidth=2;" vertex="1" parent="1">
                    <mxGeometry x="50" y="500" width="560" height="310" as="geometry"/>
                </mxCell>
                <mxCell id="11" value="" style="rounded=0;whiteSpace=wrap;html=1;fillColor=none;fontColor=#ffffff;strokeColor=#FF0000;strokeWidth=2;" vertex="1" parent="1">
                    <mxGeometry x="50" y="440" width="560" height="60" as="geometry"/>
                </mxCell>
                <mxCell id="13" value="" style="rounded=0;whiteSpace=wrap;html=1;fillColor=none;fontColor=#ffffff;strokeColor=#FF0000;strokeWidth=2;" vertex="1" parent="1">
                    <mxGeometry x="1120" y="500" width="760" height="50" as="geometry"/>
                </mxCell>
                <mxCell id="14" value="" style="rounded=0;whiteSpace=wrap;html=1;fillColor=none;fontColor=#ffffff;strokeColor=#FF0000;strokeWidth=2;" vertex="1" parent="1">
                    <mxGeometry x="894" y="370" width="96" height="50" as="geometry"/>
                </mxCell>
                <mxCell id="15" value="" style="rounded=0;whiteSpace=wrap;html=1;fillColor=none;fontColor=#ffffff;strokeColor=#FF0000;strokeWidth=2;" vertex="1" parent="1">
                    <mxGeometry x="798" y="370" width="96" height="50" as="geometry"/>
                </mxCell>
                <mxCell id="16" value="" style="rounded=0;whiteSpace=wrap;html=1;fillColor=none;fontColor=#ffffff;strokeColor=#FF0000;strokeWidth=2;" vertex="1" parent="1">
                    <mxGeometry x="702" y="370" width="96" height="50" as="geometry"/>
                </mxCell>
                <mxCell id="17" value="" style="rounded=0;whiteSpace=wrap;html=1;fillColor=none;fontColor=#ffffff;strokeColor=#FF0000;strokeWidth=2;" vertex="1" parent="1">
                    <mxGeometry x="570" y="370" width="132" height="50" as="geometry"/>
                </mxCell>
                <mxCell id="18" value="" style="rounded=0;whiteSpace=wrap;html=1;fillColor=none;fontColor=#ffffff;strokeColor=#FF0000;strokeWidth=2;" vertex="1" parent="1">
                    <mxGeometry x="316" y="370" width="132" height="50" as="geometry"/>
                </mxCell>
                <mxCell id="19" value="" style="rounded=0;whiteSpace=wrap;html=1;fillColor=none;fontColor=#ffffff;strokeColor=#FF0000;strokeWidth=2;" vertex="1" parent="1">
                    <mxGeometry x="448" y="370" width="122" height="50" as="geometry"/>
                </mxCell>
                <mxCell id="20" value="" style="rounded=0;whiteSpace=wrap;html=1;fillColor=none;fontColor=#ffffff;strokeColor=#FF0000;strokeWidth=2;" vertex="1" parent="1">
                    <mxGeometry x="180" y="370" width="136" height="50" as="geometry"/>
                </mxCell>
                <mxCell id="21" value="3" style="ellipse;whiteSpace=wrap;html=1;aspect=fixed;strokeColor=#FF0000;strokeWidth=2;fillColor=#FFFFFF;fontColor=#000000;fontSize=25;" vertex="1" parent="1">
                    <mxGeometry x="281" y="350" width="35" height="35" as="geometry"/>
                </mxCell>
                <mxCell id="22" value="4" style="ellipse;whiteSpace=wrap;html=1;aspect=fixed;strokeColor=#FF0000;strokeWidth=2;fillColor=#FFFFFF;fontColor=#000000;fontSize=25;" vertex="1" parent="1">
                    <mxGeometry x="414" y="350" width="35" height="35" as="geometry"/>
                </mxCell>
                <mxCell id="23" value="5" style="ellipse;whiteSpace=wrap;html=1;aspect=fixed;strokeColor=#FF0000;strokeWidth=2;fillColor=#FFFFFF;fontColor=#000000;fontSize=25;" vertex="1" parent="1">
                    <mxGeometry x="535" y="350" width="35" height="35" as="geometry"/>
                </mxCell>
                <mxCell id="24" value="6" style="ellipse;whiteSpace=wrap;html=1;aspect=fixed;strokeColor=#FF0000;strokeWidth=2;fillColor=#FFFFFF;fontColor=#000000;fontSize=25;" vertex="1" parent="1">
                    <mxGeometry x="667" y="350" width="35" height="35" as="geometry"/>
                </mxCell>
                <mxCell id="25" value="7" style="ellipse;whiteSpace=wrap;html=1;aspect=fixed;strokeColor=#FF0000;strokeWidth=2;fillColor=#FFFFFF;fontColor=#000000;fontSize=25;" vertex="1" parent="1">
                    <mxGeometry x="763" y="350" width="35" height="35" as="geometry"/>
                </mxCell>
                <mxCell id="26" value="8" style="ellipse;whiteSpace=wrap;html=1;aspect=fixed;strokeColor=#FF0000;strokeWidth=2;fillColor=#FFFFFF;fontColor=#000000;fontSize=25;" vertex="1" parent="1">
                    <mxGeometry x="859" y="350" width="35" height="35" as="geometry"/>
                </mxCell>
                <mxCell id="27" value="9" style="ellipse;whiteSpace=wrap;html=1;aspect=fixed;strokeColor=#FF0000;strokeWidth=2;fillColor=#FFFFFF;fontColor=#000000;fontSize=25;" vertex="1" parent="1">
                    <mxGeometry x="955" y="350" width="35" height="35" as="geometry"/>
                </mxCell>
                <mxCell id="28" value="10" style="ellipse;whiteSpace=wrap;html=1;aspect=fixed;strokeColor=#FF0000;strokeWidth=2;fillColor=#FFFFFF;fontColor=#000000;fontSize=25;" vertex="1" parent="1">
                    <mxGeometry x="1110" y="490" width="35" height="35" as="geometry"/>
                </mxCell>
                <mxCell id="29" value="11" style="ellipse;whiteSpace=wrap;html=1;aspect=fixed;strokeColor=#FF0000;strokeWidth=2;fillColor=#FFFFFF;fontColor=#000000;fontSize=25;" vertex="1" parent="1">
                    <mxGeometry x="50" y="440" width="35" height="35" as="geometry"/>
                </mxCell>
                <mxCell id="30" value="12" style="ellipse;whiteSpace=wrap;html=1;aspect=fixed;strokeColor=#FF0000;strokeWidth=2;fillColor=#FFFFFF;fontColor=#000000;fontSize=25;" vertex="1" parent="1">
                    <mxGeometry x="50" y="499" width="35" height="35" as="geometry"/>
                </mxCell>
                <mxCell id="31" value="" style="rounded=0;whiteSpace=wrap;html=1;fillColor=none;fontColor=#ffffff;strokeColor=#FF0000;strokeWidth=2;" vertex="1" parent="1">
                    <mxGeometry x="1740" y="290" width="160" height="50" as="geometry"/>
                </mxCell>
                <mxCell id="32" value="13" style="ellipse;whiteSpace=wrap;html=1;aspect=fixed;strokeColor=#FF0000;strokeWidth=2;fillColor=#FFFFFF;fontColor=#000000;fontSize=25;" vertex="1" parent="1">
                    <mxGeometry x="1730" y="275" width="35" height="35" as="geometry"/>
                </mxCell>
                <mxCell id="33" value="" style="rounded=0;whiteSpace=wrap;html=1;fillColor=none;fontColor=#ffffff;strokeColor=#FF0000;strokeWidth=2;" vertex="1" parent="1">
                    <mxGeometry x="1740" y="360" width="160" height="60" as="geometry"/>
                </mxCell>
                <mxCell id="34" value="14" style="ellipse;whiteSpace=wrap;html=1;aspect=fixed;strokeColor=#FF0000;strokeWidth=2;fillColor=#FFFFFF;fontColor=#000000;fontSize=25;" vertex="1" parent="1">
                    <mxGeometry x="1730" y="350" width="35" height="35" as="geometry"/>
                </mxCell>
            </root>
        </mxGraphModel>
    </diagram>
</mxfile>
